<svg width="25" height="24" fill="none" xmlns="http://www.w3.org/2000/svg"><path d="M22.5 6v2.42c0 1.58-1 2.58-2.58 2.58H16.5V4.01c0-1.11.91-2.01 2.02-2.01 1.09.01 2.09.45 2.81 1.17.72.73 1.17 1.73 1.17 2.83z" stroke="#061A40" stroke-width="1.5" stroke-miterlimit="10" stroke-linecap="round" stroke-linejoin="round"/><path d="M2.5 7v14c0 .83.94 1.3 1.6.8l1.71-1.28c.4-.3.96-.26 1.32.1l1.66 1.67c.39.39 1.03.39 1.42 0l1.68-1.68c.35-.35.91-.39 1.3-.09l1.71 1.28c.66.49 1.6.02 1.6-.8V4c0-1.1.9-2 2-2h-12c-3 0-4 1.79-4 4v1z" stroke="#061A40" stroke-width="1.5" stroke-miterlimit="10" stroke-linecap="round" stroke-linejoin="round"/><path d="M9.5 13.01h3m-3-4h3" stroke="#279AF1" stroke-width="1.5" stroke-linecap="round" stroke-linejoin="round"/><path d="M6.496 13h.009m-.01-4h.01" stroke="#279AF1" stroke-width="2" stroke-linecap="round" stroke-linejoin="round"/></svg>