<svg width="24" height="24" fill="none" xmlns="http://www.w3.org/2000/svg"><g clip-path="url(#clip0_3_14952)"><rect width="24" height="24" rx="12" fill="#F06543"/><path d="M16.166 9.95c0 .023 0 .879-.002.901-.036.64-.58 1.149-1.248 1.149-.667 0-1.212-.508-1.248-1.149l-.002-4.684m-7.5 6.533c0 .048.001.935.004.984.072 1.384 1.162 2.483 2.496 2.483s2.424-1.1 2.496-2.483c.003-.049.004-7.468.004-7.517M18.667 12A6.667 6.667 0 0112 18.667m3.334-4.167h.008m-1.676 0h.008" stroke="#fff" stroke-width="1.5" stroke-linecap="round" stroke-linejoin="round"/></g><defs><clipPath id="clip0_3_14952"><path fill="#fff" d="M0 0h24v24H0z"/></clipPath></defs></svg>