<svg width="26" height="26" fill="none" xmlns="http://www.w3.org/2000/svg"><g clip-path="url(#clip0_657_36337)"><path d="M13 25c6.627 0 12-5.373 12-12S19.627 1 13 1 1 6.373 1 13s5.373 12 12 12z" fill="#F7931A"/><path d="M18.392 11.515c.235-1.572-.962-2.417-2.599-2.981l.531-2.13-1.296-.323-.518 2.074c-.34-.085-.69-.165-1.038-.244l.521-2.088-1.296-.323-.531 2.13c-.282-.065-.56-.128-.828-.196l.002-.006-1.79-.448-.345 1.385s.963.22.943.234c.525.131.619.478.603.754l-.604 2.427c.036.008.082.022.135.042l-.137-.034-.848 3.4c-.065.159-.227.398-.595.307.014.019-.942-.235-.942-.235l-.643 1.484 1.687.42c.314.08.621.162.923.239l-.536 2.154 1.296.323.53-2.13c.354.095.698.183 1.034.267l-.53 2.121 1.296.323.537-2.15c2.21.419 3.873.25 4.572-1.75.564-1.609-.027-2.538-1.19-3.144.847-.194 1.485-.752 1.655-1.903zm-2.963 4.153c-.4 1.61-3.11.74-3.99.522l.713-2.854c.879.22 3.697.654 3.277 2.332zm.402-4.176c-.366 1.464-2.622.72-3.353.537l.645-2.587c.731.182 3.089.522 2.708 2.05z" fill="#fff"/></g><rect x=".5" y=".5" width="25" height="25" rx="12.5" stroke="#EAEBEB"/><defs><clipPath id="clip0_657_36337"><rect x="1" y="1" width="24" height="24" rx="12" fill="#fff"/></clipPath></defs></svg>