<svg width="64" height="64" fill="none" xmlns="http://www.w3.org/2000/svg"><rect width="64" height="64" rx="32" fill="#fff"/><path fill-rule="evenodd" clip-rule="evenodd" d="M38.247 9.529c1.71.67 2.248 2.729 1.33 4.319-.917 1.59-2.947 2.095-4.695 1.536a15.512 15.512 0 00-18.753 21.391 11.028 11.028 0 00-5.159 4.467 22.155 22.155 0 01-.001-22.162 22.16 22.16 0 0127.278-9.551z" fill="url(#paint0_linear_419_18416)"/><path d="M24.736 50.97A7.387 7.387 0 1114.29 40.523a7.387 7.387 0 0110.446 10.445z" fill="#279AF1"/><path fill-rule="evenodd" clip-rule="evenodd" d="M25.433 53.833c-1.71-.67-2.248-2.73-1.33-4.319.917-1.59 2.947-2.095 4.696-1.537a15.51 15.51 0 0018.155-7.02 15.512 15.512 0 00.652-14.254 11.032 11.032 0 005.105-4.581 22.157 22.157 0 01-13.456 32.485 22.162 22.162 0 01-13.822-.774z" fill="url(#paint1_linear_419_18416)"/><path d="M38.945 12.393A7.386 7.386 0 1149.39 22.84a7.386 7.386 0 01-10.446-10.446z" fill="#061A40"/><defs><linearGradient id="paint0_linear_419_18416" x1="9.072" y1="9.992" x2="35.764" y2="12.688" gradientUnits="userSpaceOnUse"><stop stop-color="#279AF1"/><stop offset=".317" stop-color="#279AF1"/><stop offset="1" stop-color="#279AF1" stop-opacity="0"/></linearGradient><linearGradient id="paint1_linear_419_18416" x1="54.367" y1="52.86" x2="25.519" y2="49.355" gradientUnits="userSpaceOnUse"><stop stop-color="#061A40"/><stop offset=".314" stop-color="#061A40"/><stop offset=".862" stop-color="#061A40" stop-opacity="0"/></linearGradient></defs></svg>