<svg width="64" height="64" fill="none" xmlns="http://www.w3.org/2000/svg"><g clip-path="url(#clip0_419_18416)"><rect width="64" height="64" rx="32" fill="#fff"/><path d="M25.245 10.667h7.11l-2.844 10.666h-6.4l-4.978 21.334h11.378l-2.844 10.666h-7.111l.948-3.555H9.6l7.822-35.556h6.874l.949-3.555z" fill="#313638"/><path d="M46.578 10.667h-7.111l-2.845 10.666h7.111a3.555 3.555 0 110 7.112h-16l-1.777 7.11h17.777a3.556 3.556 0 010 7.112h-7.11l-2.845 10.666h7.11l.95-3.555h1.895c5.892 0 10.667-4.776 10.667-10.667 0-2.732-1.027-5.224-2.716-7.111a10.627 10.627 0 002.716-7.111c0-5.259-3.806-9.629-8.813-10.506l.99-3.716z" fill="#F06543"/></g><defs><clipPath id="clip0_419_18416"><rect width="64" height="64" rx="32" fill="#fff"/></clipPath></defs></svg>