<svg width="24" height="24" fill="none" xmlns="http://www.w3.org/2000/svg"><path d="M0 0h24v24H0z"/><path d="M12 22C6.477 22 2 17.523 2 12S6.477 2 12 2s10 4.477 10 10-4.477 10-10 10z" stroke="#313638" stroke-width="1.5"/><path d="M14.2 7.67c1.2 0 2.17 1.08 2.17 2.17 0 1.2-.97 2.17-2.17 2.17H8.78V7.67h5.42z" stroke="#FFF" stroke-width="1.5" stroke-linejoin="round"/><path d="M14.97 12c1.37 0 2.48.97 2.48 2.17s-1.11 2.17-2.48 2.17H8.78V12h6.19z" stroke="#FFF" stroke-width="1.5" stroke-linejoin="round"/><path d="M12.57 16.33v2.17m-2.7-2.17v2.17m2.7-13v2.17M9.87 5.5v2.17m.97 0H7.05m3.79 8.66H7.05" stroke="#FFF" stroke-width="1.5" stroke-linejoin="round" stroke-linecap="round"/></svg>