<svg width="24" height="24" fill="none" xmlns="http://www.w3.org/2000/svg"><path d="M0 0h24v24H0z"/><path d="M2 12.95h8" stroke="#FFF" stroke-width="1.5" stroke-linejoin="round" stroke-linecap="round"/><path d="M17.244 18.25h.01" stroke="#FFF" stroke-width="2" stroke-linejoin="round" stroke-linecap="round"/><path d="M10 16.95H6.21c-3.37 0-4.21-.84-4.21-4.21v-6c0-3.37.84-4.21 4.21-4.21h10.53c3.37 0 4.21.84 4.21 4.21M10 21.469v-4.52M6.74 21.47H10" stroke="#313638" stroke-width="1.5" stroke-linejoin="round" stroke-linecap="round"/><path d="M22 18.51c0 2.369-.59 2.96-2.96 2.96h-3.55c-2.37 0-2.96-.591-2.96-2.96V12.8c0-2.37.59-2.96 2.96-2.96h3.55c2.37 0 2.96.59 2.96 2.96v5.71z" stroke="#313638" stroke-width="1.5" stroke-linejoin="round"/></svg>