<svg width="195" height="24" fill="none" xmlns="http://www.w3.org/2000/svg"><g clip-path="url(#clip0_1_52)"><path d="M194.302 7.347v2.638h-8.317V7.347h8.317zm-6.264-3.466h3.41v13.582c0 .459.069.81.207 1.056.144.238.333.401.565.49.232.087.49.131.773.131.213 0 .408-.015.583-.047.183-.031.321-.06.415-.085l.575 2.666a7.58 7.58 0 01-.782.207 6.38 6.38 0 01-1.225.132c-.854.025-1.623-.104-2.308-.386a3.59 3.59 0 01-1.629-1.338c-.395-.603-.59-1.356-.584-2.26V3.88zm-9.428 18.217c-1.444 0-2.684-.318-3.72-.952-1.03-.634-1.824-1.51-2.383-2.628-.553-1.124-.829-2.417-.829-3.88 0-1.47.283-2.767.848-3.89.565-1.13 1.362-2.01 2.392-2.638 1.036-.634 2.261-.951 3.674-.951 1.174 0 2.213.216 3.117.65.911.427 1.636 1.033 2.176 1.817.54.78.848 1.69.923 2.732h-3.259a3.117 3.117 0 00-.942-1.742c-.49-.471-1.146-.707-1.968-.707-.697 0-1.31.188-1.837.565-.528.37-.939.905-1.234 1.601-.289.698-.433 1.533-.433 2.506 0 .986.144 1.834.433 2.543.289.703.694 1.247 1.215 1.63.527.376 1.146.565 1.856.565.502 0 .951-.095 1.346-.283a2.702 2.702 0 001.008-.838c.27-.364.456-.807.556-1.328h3.259c-.082 1.023-.383 1.93-.904 2.722-.521.785-1.231 1.4-2.129 1.846-.898.44-1.953.66-3.165.66zm-15.097 0c-1.451 0-2.704-.302-3.759-.905a6.125 6.125 0 01-2.42-2.58c-.565-1.118-.848-2.434-.848-3.947 0-1.489.283-2.795.848-3.919.571-1.13 1.369-2.01 2.392-2.637 1.024-.634 2.226-.951 3.608-.951a7.3 7.3 0 012.524.433 5.7 5.7 0 012.11 1.319c.615.596 1.099 1.356 1.451 2.28.351.916.527 2.008.527 3.277v1.045h-11.859v-2.298h8.59c-.006-.653-.147-1.234-.423-1.742a3.088 3.088 0 00-1.159-1.215c-.49-.296-1.061-.443-1.714-.443-.697 0-1.309.17-1.837.508a3.508 3.508 0 00-1.234 1.32 3.802 3.802 0 00-.443 1.78v2.006c0 .841.154 1.563.462 2.166a3.297 3.297 0 001.29 1.375c.553.314 1.2.471 1.941.471a4.13 4.13 0 001.347-.207c.402-.144.75-.355 1.045-.631.295-.277.518-.619.669-1.027l3.184.358a4.956 4.956 0 01-1.15 2.204c-.558.622-1.274 1.105-2.147 1.45-.873.34-1.871.51-2.995.51zm-18.629-8.76v8.477h-3.409V7.347h3.258v2.458h.17a4.139 4.139 0 011.592-1.93c.735-.478 1.642-.716 2.722-.716.998 0 1.868.213 2.609.64.747.427 1.325 1.046 1.733 1.856.415.81.619 1.793.612 2.948v9.212h-3.409V13.13c0-.967-.251-1.723-.754-2.27-.496-.546-1.183-.82-2.063-.82-.596 0-1.127.133-1.591.397-.459.257-.82.63-1.084 1.12-.257.49-.386 1.084-.386 1.78zm-15.633 0v8.477h-3.409V7.347h3.259v2.458h.169a4.139 4.139 0 011.592-1.93c.735-.478 1.642-.716 2.722-.716.999 0 1.868.213 2.609.64.748.427 1.325 1.046 1.733 1.856.415.81.619 1.793.613 2.948v9.212h-3.41V13.13c0-.967-.251-1.723-.753-2.27-.497-.546-1.184-.82-2.063-.82-.597 0-1.127.133-1.592.397a2.747 2.747 0 00-1.083 1.12c-.258.49-.387 1.084-.387 1.78zm-12.705 8.76c-1.413 0-2.637-.311-3.673-.933-1.036-.622-1.84-1.491-2.411-2.61-.566-1.117-.848-2.423-.848-3.918 0-1.494.282-2.803.848-3.927.571-1.124 1.375-1.997 2.411-2.619 1.036-.621 2.26-.932 3.673-.932 1.413 0 2.638.31 3.674.932 1.036.622 1.837 1.495 2.402 2.619.571 1.124.857 2.433.857 3.927 0 1.495-.286 2.801-.857 3.919-.565 1.117-1.366 1.987-2.402 2.609-1.036.622-2.261.933-3.674.933zm.019-2.732c.766 0 1.407-.21 1.922-.631.515-.427.898-.999 1.149-1.715.257-.715.386-1.513.386-2.392 0-.885-.129-1.686-.386-2.402-.251-.722-.634-1.296-1.149-1.724-.515-.427-1.156-.64-1.922-.64-.785 0-1.438.213-1.959.64-.515.428-.901 1.002-1.158 1.724-.252.716-.377 1.517-.377 2.402 0 .88.125 1.677.377 2.392.257.716.643 1.288 1.158 1.715.521.42 1.174.63 1.959.63zm-8.849-10.333h-3.523a4.375 4.375 0 00-.556-1.535 4.128 4.128 0 00-1.008-1.15 4.19 4.19 0 00-1.375-.706 5.36 5.36 0 00-1.648-.244c-1.049 0-1.978.263-2.788.79-.81.522-1.444 1.288-1.903 2.3-.458 1.004-.688 2.231-.688 3.682 0 1.476.23 2.719.688 3.73.465 1.005 1.1 1.764 1.903 2.28.81.508 1.736.762 2.779.762.577 0 1.117-.075 1.619-.226a4.432 4.432 0 001.366-.687 4.024 4.024 0 001.027-1.112c.282-.44.477-.942.584-1.507l3.523.019a7.599 7.599 0 01-.857 2.58 7.625 7.625 0 01-1.705 2.13 7.87 7.87 0 01-2.468 1.431c-.942.34-1.988.509-3.137.509-1.695 0-3.208-.393-4.54-1.177-1.331-.785-2.38-1.919-3.146-3.4-.766-1.483-1.149-3.26-1.149-5.332 0-2.079.386-3.856 1.159-5.331.772-1.482 1.824-2.616 3.155-3.4 1.331-.786 2.838-1.178 4.521-1.178 1.074 0 2.072.15 2.995.452a7.663 7.663 0 012.468 1.328 7.063 7.063 0 011.781 2.129c.471.835.778 1.79.923 2.863z" fill="#061A40"/><path d="M78.831 13.338v8.477h-3.41V7.347h3.26v2.458h.169a4.135 4.135 0 011.592-1.93c.734-.478 1.641-.716 2.721-.716.999 0 1.869.213 2.61.64.747.427 1.325 1.046 1.733 1.856.415.81.618 1.793.612 2.948v9.212h-3.41V13.13c0-.967-.25-1.723-.753-2.27-.496-.546-1.184-.82-2.063-.82-.596 0-1.127.133-1.592.397-.458.257-.82.63-1.083 1.12-.257.49-.386 1.084-.386 1.78zm-9.796 8.477V7.347h3.41v14.468h-3.41zm1.714-16.521a1.99 1.99 0 01-1.394-.537c-.39-.364-.584-.8-.584-1.31 0-.514.195-.95.584-1.309a1.97 1.97 0 011.394-.546c.547 0 1.011.182 1.394.546.39.358.585.795.585 1.31 0 .508-.195.945-.585 1.309a1.968 1.968 0 01-1.394.537zM59.74 22.098c-1.414 0-2.638-.311-3.674-.933-1.037-.622-1.84-1.491-2.412-2.61-.565-1.117-.847-2.423-.847-3.918 0-1.494.282-2.803.847-3.927.572-1.124 1.375-1.997 2.412-2.619 1.036-.621 2.26-.932 3.673-.932 1.413 0 2.637.31 3.674.932 1.036.622 1.836 1.495 2.401 2.619.572 1.124.858 2.433.858 3.927 0 1.495-.286 2.801-.858 3.919-.565 1.117-1.365 1.987-2.401 2.609-1.037.622-2.261.933-3.674.933zm.018-2.732c.766 0 1.407-.21 1.921-.631.515-.427.898-.999 1.15-1.715.257-.715.386-1.513.386-2.392 0-.885-.129-1.686-.386-2.402-.252-.722-.635-1.296-1.15-1.724-.514-.427-1.155-.64-1.921-.64-.785 0-1.438.213-1.96.64-.514.428-.9 1.002-1.158 1.724-.25.716-.377 1.517-.377 2.402 0 .88.126 1.677.377 2.392.258.716.644 1.288 1.159 1.715.52.42 1.174.63 1.959.63zM50.91 9.033h-3.523a4.387 4.387 0 00-.556-1.535 4.13 4.13 0 00-1.008-1.15 4.203 4.203 0 00-1.375-.706 5.364 5.364 0 00-1.648-.244c-1.049 0-1.978.263-2.788.79-.81.522-1.445 1.288-1.903 2.3-.458 1.004-.687 2.231-.687 3.682 0 1.476.229 2.719.687 3.73.465 1.005 1.1 1.764 1.903 2.28.81.508 1.736.762 2.778.762.578 0 1.118-.075 1.62-.226a4.433 4.433 0 001.366-.687 4.194 4.194 0 001.61-2.619l3.524.019a7.584 7.584 0 01-.857 2.58 7.609 7.609 0 01-1.705 2.13 7.86 7.86 0 01-2.468 1.431c-.942.34-1.988.509-3.137.509-1.695 0-3.208-.393-4.54-1.177-1.33-.785-2.38-1.919-3.146-3.4-.766-1.483-1.149-3.26-1.149-5.332 0-2.079.386-3.856 1.159-5.331.772-1.482 1.824-2.616 3.155-3.4 1.331-.786 2.838-1.178 4.521-1.178 1.074 0 2.072.15 2.996.452a7.674 7.674 0 012.468 1.328 7.066 7.066 0 011.78 2.129c.47.835.778 1.79.923 2.863z" fill="#279AF1"/><path fill-rule="evenodd" clip-rule="evenodd" d="M15.13.847c.854.335 1.124 1.365.665 2.16-.46.795-1.474 1.048-2.349.768A7.758 7.758 0 004.07 14.473a5.515 5.515 0 00-2.58 2.234 11.079 11.079 0 01-.001-11.083A11.082 11.082 0 0115.13.847z" fill="url(#paint0_linear_1_52)"/><path d="M8.373 21.571a3.694 3.694 0 11-5.224-5.223 3.694 3.694 0 015.224 5.223z" fill="#279AF1"/><path fill-rule="evenodd" clip-rule="evenodd" d="M8.721 23.004c-.855-.336-1.124-1.365-.665-2.16.459-.795 1.474-1.048 2.348-.769A7.756 7.756 0 0019.81 9.436a5.517 5.517 0 002.554-2.291A11.081 11.081 0 018.72 23.004z" fill="url(#paint1_linear_1_52)"/><path d="M15.478 2.28a3.694 3.694 0 115.224 5.224 3.694 3.694 0 01-5.224-5.224z" fill="#061A40"/></g><defs><linearGradient id="paint0_linear_1_52" x1=".539" y1="1.079" x2="13.888" y2="2.427" gradientUnits="userSpaceOnUse"><stop stop-color="#279AF1"/><stop offset=".317" stop-color="#279AF1"/><stop offset="1" stop-color="#279AF1" stop-opacity="0"/></linearGradient><linearGradient id="paint1_linear_1_52" x1="23.191" y1="22.517" x2="8.764" y2="20.764" gradientUnits="userSpaceOnUse"><stop stop-color="#061A40"/><stop offset=".314" stop-color="#061A40"/><stop offset=".862" stop-color="#061A40" stop-opacity="0"/></linearGradient><clipPath id="clip0_1_52"><path fill="#fff" d="M0 0h195v24H0z"/></clipPath></defs></svg>