<svg width="149" height="48" fill="none" xmlns="http://www.w3.org/2000/svg"><g clip-path="url(#clip0_138_14427)"><path fill-rule="evenodd" clip-rule="evenodd" d="M36.228 16.962a8.395 8.395 0 007.703-3.998 7.789 7.789 0 001.4-5.069c-.111-1.023-.445-1.378-1.001-1.066a11.135 11.135 0 01-4.543 1.372c-1.702.223-3.419.3-5.133.233-1.485-.078-3.775-.256-6.87-.535-3.094-.279-5.239-.45-6.432-.512a41.605 41.605 0 00-2.396-.116c-.74-.013-1.99.034-3.747.14a29.967 29.967 0 00-4.7.627 20.302 20.302 0 00-4.403 1.605c-1.428.66-2.7 1.618-3.73 2.809A9.096 9.096 0 00.04 18.148a5.767 5.767 0 002.13 5.185 6.818 6.818 0 004.3 1.441c1.44.037 2.87-.233 4.198-.79a9.18 9.18 0 002.737-1.767 4.63 4.63 0 001-1.325.665.665 0 000-.698 5.654 5.654 0 00-.678-.581 2.47 2.47 0 01-.72-.837 2.094 2.094 0 01-.303-1.558 5.83 5.83 0 01.694-2.139 4.697 4.697 0 012.01-1.86 6.445 6.445 0 013.409-.678h.046L13.18 30.352c-1.101 3.441-.993 6.363.324 8.766 1.317 2.403 3.848 3.698 7.592 3.883a15.28 15.28 0 005.435-.697 14.195 14.195 0 004.404-2.21 21.102 21.102 0 002.905-2.65 10.095 10.095 0 001.609-2.302 1.416 1.416 0 00.253-1.185c-.126-.233-.45-.21-.969.07a15.846 15.846 0 01-5.52 1.72 7.603 7.603 0 01-4.878-.744c-1.266-.744-1.637-1.984-1.114-3.72.006-.03.36-1.147 1.065-3.348h7.671a.284.284 0 00.324-.232l1.506-4.65.018-.097-.205-.14h-7.671c.201-.557.596-1.759 1.186-3.603l1.242-3.883a30.664 30.664 0 007.872 1.632zM53.44 28.495a.155.155 0 00-.031-.127.158.158 0 00-.118-.059H39.48a.325.325 0 00-.324.233l-1.287 3.999.194.186h13.854a.183.183 0 00.213-.14l1.312-4.092zm38.353 4.324l2.29-7.254c.748-2.26.726-4.105-.067-5.534a4.107 4.107 0 00-3.885-2.137 9.892 9.892 0 00-4.608 1.349 15.386 15.386 0 00-4.74 4.185 5.287 5.287 0 00-.959-4.046 4.22 4.22 0 00-3.454-1.488 9.905 9.905 0 00-4.53 1.302 15.163 15.163 0 00-4.69 4.046 4.853 4.853 0 00-.935-3.93 4.65 4.65 0 00-3.7-1.418 8.414 8.414 0 00-3.874 1.047 6.86 6.86 0 00-2.762 2.255.39.39 0 00-.07.477c.029.05.068.094.116.127.202.155.456.364.762.628a2.4 2.4 0 01.444 1.79 16.082 16.082 0 01-.808 4.046c-.663 2.139-2.222 6.742-4.677 13.81l-.018.098.106.134h9.342a.795.795 0 00.186-.116.278.278 0 00.097-.163l3.95-12.462c.415-1.3 1.06-2.514 1.903-3.585 1.04-1.209 1.949-1.736 2.725-1.58.868.154 1.035 1.053.5 2.696-.462 1.581-.8 2.682-1.013 3.302-.67 2.015-1.89 5.905-3.658 11.672a.06.06 0 00-.032.072.06.06 0 00.015.025l.118.14h9.349a.81.81 0 00.185-.117.285.285 0 00.097-.163l3.323-11.625.255-.836a9.907 9.907 0 011.903-3.585c1.04-1.209 1.948-1.736 2.724-1.58.868.154 1.035 1.053.5 2.696l-2.865 9.022c-.663 2.139-.537 3.85.376 5.134a4.855 4.855 0 004.251 1.93 8.413 8.413 0 003.874-1.046 6.985 6.985 0 002.753-2.209.387.387 0 00.057-.528 2.103 2.103 0 00-.616-.418 1.68 1.68 0 01-.722-.837 4.287 4.287 0 01-.267-1.86 13.45 13.45 0 01.745-3.465h.004zm29.055-1.301c1.112-3.503.836-6.557-.829-9.162-1.664-2.604-4.331-4.046-8-4.324a15.768 15.768 0 00-10.326 3.022 16.422 16.422 0 00-6.526 8.604c-1.114 3.502-.83 6.556.85 9.16 1.68 2.605 4.354 4.047 8.018 4.325a15.696 15.696 0 0010.369-3.003 16.5 16.5 0 006.44-8.622h.004zm-16.643-1.21a16.416 16.416 0 012.637-5.207 4.11 4.11 0 013.522-1.86 2.29 2.29 0 012.185 2.278 12.272 12.272 0 01-.735 5.349 16.334 16.334 0 01-2.623 5.254 4.044 4.044 0 01-3.486 1.814 2.295 2.295 0 01-2.181-2.302 12.55 12.55 0 01.677-5.325h.004zm41.748 2.511c.402-1.27.849-2.659 1.341-4.165.492-1.506.823-2.537.994-3.092.718-2.26.68-4.105-.112-5.534a4.099 4.099 0 00-3.885-2.139 10.552 10.552 0 00-4.697 1.326 15.273 15.273 0 00-4.867 4.115 4.782 4.782 0 00-.925-3.972 4.68 4.68 0 00-3.738-1.465 8.41 8.41 0 00-3.875 1.047 6.863 6.863 0 00-2.762 2.255.397.397 0 00-.029.511c.157.156.334.289.528.396.286.206.499.5.604.836.188.602.255 1.234.194 1.86a14.38 14.38 0 01-.765 3.465c-.693 2.139-2.283 6.742-4.768 13.81-.01.025-.013.051-.01.077.003.026.012.05.025.073a.177.177 0 00.125.083h9.297a.325.325 0 00.192-.09.322.322 0 00.098-.189l3.951-12.462a10.012 10.012 0 011.987-3.534c1.108-1.24 2.097-1.783 2.965-1.628.9.155 1.098 1.054.593 2.697l-2.864 9.022c-.694 2.139-.585 3.85.328 5.134a4.862 4.862 0 004.252 1.93 8.414 8.414 0 003.874-1.046 7.43 7.43 0 002.799-2.209.408.408 0 00.009-.53 2.128 2.128 0 00-.616-.42 1.676 1.676 0 01-.72-.836 4.244 4.244 0 01-.268-1.86c.093-1.183.341-2.348.741-3.465h.004z" fill="#1B1B1B"/></g><defs><clipPath id="clip0_138_14427"><path fill="#fff" d="M0 0h148.8v48H0z"/></clipPath></defs></svg>