<svg width="218" height="48" fill="none" xmlns="http://www.w3.org/2000/svg"><path d="M88.363 47.04H5.267C2.357 47.04 0 44.639 0 41.673V6.327C0 3.361 2.356.96 5.267.96h83.096v46.08z" fill="url(#paint0_linear_138_14430)"/><path d="M211.306 47.04H88.36V.96h122.946c2.911 0 5.268 2.401 5.268 5.367V41.69c0 2.949-2.357 5.35-5.268 5.35z" fill="url(#paint1_linear_138_14430)"/><path d="M26.983 28.907c0 1.747-.243 3.142-.71 4.184-.468 1.041-1.092 1.836-1.837 2.366-.745.547-1.577.9-2.495 1.077a14.3 14.3 0 01-2.703.264h-8.784V11.392h9.668c1.247 0 2.252.212 3.049.636.797.424 1.42.971 1.889 1.66.467.688.78 1.447.952 2.277.174.83.243 1.66.226 2.454-.035 2.313-.607 3.884-1.716 4.714.728.353 1.317.989 1.785 1.907.45.936.676 2.225.676 3.867zm-5.406-10.4c0-.794-.087-1.394-.277-1.783-.19-.388-.555-.582-1.11-.582h-5.006v5.067h4.556c.71 0 1.179-.247 1.439-.724.26-.494.398-1.165.398-1.977zm.658 10.435c0-.706-.052-1.271-.173-1.677-.104-.407-.26-.742-.433-.971-.173-.23-.364-.389-.59-.46a1.929 1.929 0 00-.623-.105h-5.232v6.09h4.834c.831 0 1.42-.229 1.732-.67.33-.46.485-1.183.485-2.207zm23.702 7.856H30.101V11.392h15.56v4.926H34.813v4.679h9.98v4.926h-9.98v5.914h11.123v4.961zm18.331-7.503c0 5.35-2.824 8.033-8.472 8.033-2.738 0-4.834-.794-6.272-2.366-1.438-1.589-2.149-4.025-2.149-7.327h4.592c.035.724.121 1.413.242 2.013a4.01 4.01 0 00.659 1.571c.312.442.71.777 1.213 1.024.502.247 1.143.371 1.923.371 1.282 0 2.2-.247 2.772-.724.572-.477.866-1.43.866-2.807 0-.724-.121-1.253-.346-1.571-.225-.318-.59-.565-1.075-.76-.554-.211-1.23-.37-2.01-.494a23.73 23.73 0 01-2.685-.6c-.78-.23-1.507-.494-2.166-.795a5.347 5.347 0 01-1.75-1.253c-.502-.547-.883-1.253-1.16-2.119-.278-.865-.416-2.012-.416-3.425 0-1.041.121-1.942.381-2.701.243-.76.59-1.412 1.005-1.942.416-.53.9-.953 1.438-1.289a7.487 7.487 0 011.68-.76 8.473 8.473 0 011.716-.352 17.605 17.605 0 011.577-.088c1.628 0 2.962.264 3.967.776 1.022.512 1.802 1.2 2.374 2.013.572.83.953 1.766 1.143 2.79.191 1.041.295 2.065.295 3.071h-4.505c-.07-.423-.121-.9-.173-1.412a3.8 3.8 0 00-.33-1.342c-.155-.335-.415-.635-.814-.9-.398-.265-1.022-.406-1.87-.406-.66 0-1.214.053-1.647.177-.433.123-.762.3-1.005.53a1.82 1.82 0 00-.502.917c-.087.37-.139.83-.139 1.342 0 .618.139 1.06.399 1.324.26.265.762.494 1.49.689a25.8 25.8 0 002.304.53c.78.14 1.525.317 2.253.511.727.194 1.403.46 2.027.795a5.293 5.293 0 011.646 1.36c.467.582.849 1.323 1.108 2.224.295.9.416 2.03.416 3.372zm17.205-12.994h-5.7v20.497h-4.73V16.301h-5.7v-4.908h16.113V16.3h.017z" fill="#fff"/><path d="M112.044 27.455a18.862 18.862 0 01-.676 3.778c-.346 1.2-.849 2.242-1.507 3.125-.659.9-1.525 1.607-2.582 2.137s-2.339.794-3.846.794c-1.733 0-3.206-.3-4.418-.9-1.213-.6-2.184-1.483-2.946-2.613-.745-1.148-1.3-2.56-1.629-4.238-.346-1.677-.52-3.584-.52-5.738 0-1.977.191-3.778.555-5.367.364-1.589.936-2.948 1.715-4.078a8.002 8.002 0 012.946-2.578c1.195-.6 2.616-.9 4.262-.9 1.663 0 3.015.265 4.072.794 1.057.53 1.888 1.219 2.529 2.066a8.365 8.365 0 011.352 2.896c.277 1.076.467 2.171.589 3.248h-4.47a20.62 20.62 0 00-.364-1.624 3.92 3.92 0 00-.589-1.342c-.26-.37-.624-.67-1.075-.9-.45-.23-1.056-.336-1.819-.336-.918 0-1.698.159-2.321.46-.624.3-1.144.794-1.525 1.482-.381.689-.659 1.59-.832 2.701-.173 1.113-.242 2.49-.242 4.132 0 1.66.12 2.983.346 4.025.225 1.024.555 1.836.97 2.401.416.583.919.971 1.525 1.183a6.017 6.017 0 002.01.318c.762 0 1.351-.124 1.802-.353a2.55 2.55 0 001.057-1.007c.26-.44.468-.953.606-1.553.156-.6.295-1.271.451-2.03h4.574v.017zm18.972 9.34h-4.713V25.83H119.2v10.964h-4.713V11.389h4.713v9.48h7.103v-9.48h4.713v25.406zm19.873 0h-4.939l-1.299-5.244h-6.272l-1.282 5.244h-4.764l6.826-25.406h4.677l7.053 25.406zm-7.415-9.976l-1.942-8.174-1.991 8.175h3.933zm21.259 9.976l-7.208-15.466v15.466h-4.713V11.389h4.626l7.26 15.36v-15.36h4.677v25.406h-4.642zm25.901 0h-3.828v-2.578c-.278.618-.624 1.112-1.04 1.5a5.258 5.258 0 01-1.351.919 5.85 5.85 0 01-1.525.459c-.52.088-1.04.123-1.542.123-1.733 0-3.188-.335-4.349-1.024a7.882 7.882 0 01-2.806-2.824c-.711-1.201-1.213-2.631-1.508-4.273a29.939 29.939 0 01-.451-5.297c0-8.615 3.171-12.923 9.53-12.923 1.577 0 2.894.265 3.985.777a7.317 7.317 0 012.65 2.065 8.197 8.197 0 011.456 2.949c.294 1.112.451 2.26.451 3.425h-4.817c0-.512-.035-1.042-.105-1.59a3.824 3.824 0 00-.467-1.447c-.242-.424-.623-.777-1.126-1.041-.502-.265-1.178-.407-2.045-.407-.866 0-1.611.142-2.2.442-.607.3-1.092.76-1.473 1.395-.38.635-.658 1.465-.831 2.471-.174 1.007-.26 2.225-.26 3.637 0 1.554.069 2.896.224 4.008.157 1.112.416 2.013.798 2.684.381.688.883 1.182 1.508 1.5.623.318 1.42.477 2.39.477.555 0 1.075-.088 1.577-.265a3.368 3.368 0 001.3-.83c.364-.37.657-.865.866-1.447.207-.583.295-1.29.277-2.119h-4.436v-4.679h9.184v13.913h-.036zm18.765 0h-15.802V11.389h15.524v4.926H198.31v4.678h9.945v4.926h-9.945v5.915h11.089v4.96z" fill="#363636"/><defs><linearGradient id="paint0_linear_138_14430" x1="44.182" y1="47.04" x2="44.182" y2=".96" gradientUnits="userSpaceOnUse"><stop stop-color="#1C1C1C"/><stop offset="1" stop-color="#4B4B4B"/></linearGradient><linearGradient id="paint1_linear_138_14430" x1="152.467" y1="47.04" x2="152.467" y2=".96" gradientUnits="userSpaceOnUse"><stop stop-color="#BCBCBC"/><stop offset="1" stop-color="#F3F3F3"/></linearGradient></defs></svg>