<svg width="177" height="48" fill="none" xmlns="http://www.w3.org/2000/svg"><g clip-path="url(#clip0_138_14421)" fill-rule="evenodd" clip-rule="evenodd"><path d="M41.601 3.017A73.221 73.221 0 000 3.017v23.22C0 35.412 7.942 43.717 20.8 48c12.838-4.283 20.801-12.719 20.801-21.763V3.017zm-11.88 28.72c-1.467 1.072-3.048 1.298-3.927 1.424-.138.02-.259.037-.359.055a7.74 7.74 0 00-.593.04c-.357.03-.796.068-1.234.068v4.653H20.8v-4.522h-2.198v4.522h-2.829v-4.522H10.27l.609-3.413h1.719c.61 0 .848 0 1.11-.262.239-.239.239-.608.239-.847v-11.74c0-.718 0-.98-.37-1.327-.37-.37-1.088-.37-1.588-.37h-1.72v-2.935h5.505V8.04h2.83v4.522H20.8V8.04h2.807v4.63c2.088.131 3.677.501 5.026 1.588 1.697 1.348 1.697 3.544 1.588 4.174 0 .479-.261 1.588-.74 2.196-.5.718-1.588 1.348-1.588 1.348s1.349.24 2.328.979c.979.717 1.697 1.956 1.588 3.891 0 1.848-.37 3.805-2.089 4.892zm22.215 2.91c-.5 0-.957-.021-1.392-.043a12.485 12.485 0 01-1.61-.218 10.793 10.793 0 01-1.24-.348c-.436-.13-.893-.304-1.393-.5l4.656-19.676 4.156-.608-1.72 6.957a10.464 10.464 0 011.524-.392c.587-.108 1.175-.152 1.719-.108.5.043.957.152 1.37.304.523.196.958.478 1.328.826.304.305.566.652.783 1.022a8.51 8.51 0 01.61 1.674c.057.286.097.572.136.843l.016.114a8.9 8.9 0 01.022 1.696 8.46 8.46 0 01-.327 1.826 8.861 8.861 0 01-.718 1.826c-.174.37-.392.718-.63 1.066a8.26 8.26 0 01-.893 1.065 7.93 7.93 0 01-1.218 1.044 8.77 8.77 0 01-1.589.891 8.131 8.131 0 01-1.61.5 8.51 8.51 0 01-1.98.24zm.98-11.001l-1.85 7.457.108.015c.282.038.535.072.806.072.196 0 .413 0 .609-.021.348-.022.653-.088.957-.196.283-.087.544-.196.784-.326.282-.152.544-.348.805-.544.239-.217.478-.456.674-.696a6.53 6.53 0 00.588-.913 6.66 6.66 0 00.435-1c.07-.226.125-.452.178-.668.013-.053.026-.107.04-.158.037-.246.059-.508.078-.743l.008-.105c0-.391-.043-.717-.108-1.022a3.166 3.166 0 00-.457-1.022c-.153-.195-.305-.37-.5-.5a2.416 2.416 0 00-.936-.413c-.37-.065-.74-.021-1.132.087-.37.13-.761.348-1.088.696zm8.55 10.501h4.047l3.416-14.306h-4.025l-3.438 14.306zm3.808-18.089c0 1.305.935 2.087 2.197 2.087 1.501 0 2.807-1.326 2.807-2.826 0-1.305-.936-2.066-2.198-2.066-1.5 0-2.806 1.305-2.806 2.805zm7.572.24l4.156-.61-.98 4.153h4.526l-.848 3.305h-4.395l-1.24 5.022c-.11.479-.349 1.718-.11 2.196.327.674 1.132.848 1.828.848.916 0 1.493-.179 2.34-.442l.119-.036.24 3.044c-.915.456-2.916.739-3.917.739-1.545 0-3.764-.457-4.417-2.088-.566-1.413-.326-3.304 0-4.76l2.698-11.372zm12.95 11.799c1.027.517 2.346 1.181 2.346 2.028 0 1.109-1.132 1.348-2.459 1.348-1.523.021-3.307-.609-4.025-1l-1.35 3.065c1.785.892 3.264 1.218 5.266 1.218 2.938 0 6.353-1.174 6.353-4.631 0-2.572-1.977-3.616-3.509-4.425-.967-.511-1.756-.928-1.756-1.576 0-1.109 1.436-1.109 2.22-1.109.848 0 2.458.392 3.176.87l1.349-3.066c-1.436-.695-2.807-1.087-4.417-1.087-3.09 0-6.223 1.022-6.223 4.631 0 1.61.892 2.414 2.154 3.262.219.141.53.298.875.472zm-64.212-6.169c1.849-.087 4.177-.739 4.177-2.935 0-2.326-2.937-2.565-4.656-2.565-.849 0-1.828.108-1.828.108v5.501c0-.07.558-.077 1.217-.085a34.18 34.18 0 001.09-.024zm-2.197 2.805s1.85-.109 3.176 0c1.959.174 4.57.696 4.657 3.066.108 2.478-2.72 2.935-4.657 3.043-1.327.087-3.176 0-3.176 0v-6.109z" fill="#F89C1C"/><path d="M142.951 34.517c-1.414 0-3.046-.544-3.916-1.718-1.501-2-1.415-5.37-.501-7.566 1.436-3.435 4.439-5.5 8.203-5.5.32 0 .639.03.943.058.275.026.537.05.775.05l1.459-6.11 4.156-.608-3.548 14.915c-.5 2.174-.239 3.74.371 5.87l-3.547.478c-.191-.382-.265-.636-.36-.957-.035-.118-.072-.245-.118-.39-1.153.869-2.481 1.478-3.917 1.478zm4.765-11.371h-1.35c-2.654 0-4.285 3-4.285 5.37 0 1.479.348 2.827 2.088 2.827.958 0 1.567-.457 2.197-1.11 0-.543.262-2.304.371-2.804l.979-4.283zm-43.392-2.622l-.169.056-3.415 12.958h4.047l2.567-11c.181 0 .396-.029.626-.06h.001c.265-.034.551-.071.831-.071 1.588 0 1.892 1.674 1.588 2.935l-1.958 8.436h4.047l1.828-7.697c.217-.935.369-1.848.369-2.805.157-.053.322-.118.493-.184.519-.203 1.089-.424 1.596-.424 1.567 0 1.871 1.63 1.588 2.935l-1.957 8.414h4.025c.135-.56.325-1.274.535-2.071.665-2.52 1.546-5.858 1.663-7.691.195-3.088-1.632-4.784-4.766-4.784-1.718 0-2.828.479-4.286 1.349-.979-.979-2.437-1.349-3.786-1.349-2.309 0-3.422.372-5.467 1.053zm28.335-1.053c-4.983 0-8.551 4.262-8.551 9.045 0 2.218 1.436 4.327 3.416 5.262 1.566.739 5.81.521 7.354-.24l-.261-3.174c-1.175.478-2.154.609-3.417.609-1.653 0-2.632-.326-2.936-2.087 1.218 0 2.436 0 3.546-.24 2.785-.608 5.374-2.021 5.374-5.26 0-2.545-2.154-3.915-4.525-3.915zm-4.395 6.85c.478-1.914 1.632-3.545 3.785-3.545.979 0 1.48.37 1.48 1.218 0 1.196-1.611 1.913-2.568 2.087a15.7 15.7 0 01-2.697.24zm24.586 7.826h4.047l3.416-14.306h-4.025l-3.438 14.306zm3.786-18.089c0 1.305.958 2.087 2.219 2.087 1.502 0 2.807-1.326 2.807-2.826 0-1.305-.957-2.066-2.197-2.066-1.502 0-2.829 1.305-2.829 2.805zm17.016 11.98c-.545 2.217-.239 3.74.369 5.87l-3.546.478c-.207-.396-.291-.67-.404-1.037l-.096-.31c-1.154.89-2.307 1.347-3.786 1.347-5.179 0-5.919-5.544-4.395-9.414 1.61-4.13 4.568-5.61 8.92-5.61 1.654 0 3.242.48 4.765 1.088l-1.827 7.588zm-2.807-5.023c-.159 0-.348-.022-.555-.047-.249-.029-.522-.061-.794-.061-2.655 0-4.417 3.109-4.417 5.5 0 1.479.348 2.805 2.089 2.805.957 0 1.566-.456 2.197-1.087 0-.565.196-2.326.37-2.826l1.11-4.284zm-76.589 9.067c0 1.304.958 2.065 2.198 2.065 1.502 0 2.828-1.326 2.828-2.804 0-1.305-.957-2.088-2.22-2.088-1.478 0-2.806 1.326-2.806 2.827z" fill="#2A609F"/><path d="M20.365.774c2.089.239 21.65 3.674 21.65 28.242.13-.609.13-1.348.13-1.957V3.84C35.16 1.643 27.719.665 20.365.774z" fill="#fff" fill-opacity=".302"/></g><defs><clipPath id="clip0_138_14421"><path fill="#fff" d="M0 0h176.64v48H0z"/></clipPath></defs></svg>