<svg width="235" height="48" fill="none" xmlns="http://www.w3.org/2000/svg"><g clip-path="url(#clip0_304_12297)"><path fill-rule="evenodd" clip-rule="evenodd" d="M20.386.143C12.179 1.489 5.036 7.224 2.02 14.888.7 18.247.454 19.761.506 24.248c.045 3.816.06 3.98.566 5.918.7 2.685 2.295 6.01 3.921 8.175 1.227 1.633 4.232 4.517 5.791 5.559 4.137 2.762 8.58 4.1 13.617 4.1 5.091 0 9.344-1.255 13.422-3.962 2.08-1.38 5.328-4.63 6.708-6.708 2.707-4.078 3.962-8.331 3.962-13.422 0-6.869-2.465-12.64-7.452-17.444C37.804 3.346 33.99 1.308 29.584.343 28.501.106 27.706.05 24.878.01c-2.37-.033-3.734.007-4.492.132zm6.686 4.78c8.485 1.462 14.648 7.424 16.258 15.732.367 1.892.362 4.836-.011 6.668-.812 3.984-2.605 7.366-5.37 10.132-5.16 5.158-12.627 6.969-19.393 4.702-5.865-1.965-10.22-6.246-12.249-12.042-1.524-4.354-1.454-8.401.225-12.945 1.85-5.01 6.094-9.256 11.132-11.136 3.254-1.214 6.547-1.603 9.408-1.11zm-13.66 4.28c-.632.287-1.588 1.205-2.236 2.147-.633.92-1.788 3.323-2.437 5.072-.32.86-.716 1.749-.882 1.973-.877 1.188-.906 1.597-.349 4.949.455 2.738.692 3.226 1.877 3.865.683.369.759.378 4.283.524 4.89.203 6.103.146 7.029-.332.873-.451 1.684-1.238 2.087-2.024.164-.322.488-1.32.72-2.218.39-1.512.446-1.636.761-1.668.187-.02.421.017.52.082.1.064.364.846.588 1.736.224.891.552 1.868.73 2.172.402.691 1.355 1.579 2.13 1.983.78.408 2.321.467 6.96.27 3.759-.16 4.169-.24 4.908-.94.677-.643.892-1.28 1.319-3.91.467-2.876.442-3.187-.346-4.353-.253-.374-.651-1.231-.885-1.905-.704-2.032-2.196-4.924-3.087-5.985-1.074-1.28-1.955-1.75-3.137-1.677-.99.06-1.535.389-1.72 1.035-.276.962.516 1.748 1.597 1.586.547-.082.606-.057 1.065.45.267.297.736.96 1.042 1.476.633 1.067 1.84 3.863 1.666 3.863-.063 0-2.425.094-5.25.21-5.439.22-5.61.245-6.447.95-.414.35-.556.387-1.54.396-.973.009-1.112-.023-1.38-.315-.698-.76-1.014-.81-6.56-1.032-2.83-.113-5.175-.234-5.21-.27-.172-.171 1.33-3.36 2.152-4.572.717-1.056.86-1.147 1.798-1.152.717-.003.85-.048 1.138-.383.587-.682.362-1.626-.491-2.067-.547-.283-1.717-.252-2.412.064zm2.546 10.963c4.067.163 5.14.244 5.297.401.172.172.142.41-.235 1.871-.471 1.828-.683 2.22-1.413 2.62-.469.257-.624.26-4.734.114-2.347-.084-4.31-.21-4.382-.284-.179-.179-.853-4.43-.747-4.707.104-.27-.157-.27 6.214-.015zm23.12.25c.067.586-.53 4.214-.727 4.426-.134.142-1.153.219-4.374.33-5.528.19-5.377.26-6.185-2.831-.358-1.369-.39-1.628-.228-1.79.146-.147 1.2-.232 4.605-.373 2.428-.1 4.966-.176 5.64-.166l1.225.017.044.386z" fill="#303138"/><path d="M79.169 26.399h-5.732l-5.128-7.747h-1.208v7.747h-4.806V7.205H67.1v7.824c.754-.034 1.316-.202 1.684-.502.377-.301.822-.963 1.336-1.986.146-.3.313-.657.501-1.07.198-.412.369-.773.514-1.082.557-1.16 1.234-1.985 2.031-2.475.805-.499 1.864-.748 3.174-.748.429 0 .784.009 1.067.026.283.008.501.013.655.013v4.112h-1.105c-.548 0-1.028.172-1.44.515-.402.335-.813 1.01-1.233 2.024-.334.808-.651 1.422-.95 1.844-.292.412-.566.691-.823.837l6.657 9.862zm14.766-14.476L86.648 31.71h-4.832l2.185-5.66-5.295-14.127h4.73l3.032 9.075 2.84-9.075h4.627zm15.845 7.038c0 2.312-.587 4.176-1.761 5.595-1.164 1.418-2.604 2.126-4.318 2.126-.719 0-1.345-.081-1.876-.245a8.433 8.433 0 01-1.696-.76v6.033h-4.498V11.923h4.498v1.508a10.374 10.374 0 012.018-1.38c.685-.352 1.477-.528 2.377-.528 1.67 0 2.964.666 3.881 1.998.917 1.332 1.375 3.145 1.375 5.44zm-4.601.09c0-1.41-.218-2.432-.655-3.068-.428-.636-1.101-.954-2.018-.954-.402 0-.805.065-1.208.194a4.806 4.806 0 00-1.169.58v7.283c.24.103.501.176.784.22.291.042.634.064 1.027.064 1.098 0 1.912-.357 2.443-1.07.531-.722.796-1.805.796-3.249zm14.111 7.735c-1.191 0-2.283-.15-3.277-.452a7.04 7.04 0 01-2.571-1.392c-.719-.627-1.28-1.413-1.683-2.359-.403-.954-.604-2.075-.604-3.364 0-1.384.218-2.561.655-3.532.438-.971 1.028-1.77 1.774-2.398a6.926 6.926 0 012.532-1.328 10.566 10.566 0 015.436-.154c.797.18 1.598.472 2.402.876v3.867h-.578a8.443 8.443 0 00-.668-.567 5.987 5.987 0 00-.849-.567 5.376 5.376 0 00-1.104-.451 4.578 4.578 0 00-1.375-.194c-1.148 0-2.039.404-2.673 1.212-.626.8-.939 1.878-.939 3.236 0 1.452.334 2.535 1.003 3.248.677.713 1.572 1.07 2.686 1.07.565 0 1.063-.064 1.491-.193a5.037 5.037 0 001.104-.464c.301-.18.558-.366.772-.554.214-.198.399-.374.552-.53h.578v3.868c-.257.112-.556.24-.899.387a7.207 7.207 0 01-1.028.36c-.436.121-.848.211-1.233.271-.377.07-.879.104-1.504.104z" fill="#0078D7"/><path d="M141.071 16.526c0 3.231-.862 5.749-2.583 7.554-1.715 1.796-4.035 2.694-6.966 2.694-1.37 0-2.643-.176-3.817-.529-1.166-.352-2.038-.67-2.621-.954v-4.344h.449c.163.146.437.374.823.683.395.301.78.55 1.157.748a8.633 8.633 0 001.593.632 6.883 6.883 0 003.585.013 4.476 4.476 0 001.632-.812c.515-.404.948-.92 1.298-1.547.36-.628.587-1.448.683-2.462h-7.623V14.54h7.519c-.129-.757-.352-1.397-.668-1.921a4.368 4.368 0 00-1.182-1.315 4.622 4.622 0 00-1.491-.722 5.638 5.638 0 00-1.607-.232c-.66 0-1.268.086-1.825.258a8.507 8.507 0 00-1.554.632 7.725 7.725 0 00-1.222.812 76.74 76.74 0 00-.81.657h-.501V8.327c.823-.404 1.782-.752 2.879-1.044 1.097-.3 2.309-.451 3.637-.451 2.811 0 5.047.872 6.708 2.617 1.672 1.736 2.507 4.095 2.507 7.077zm16.847 9.874h-5.178l-3.42-5.736h-1.156V26.4h-4.497V11.924h4.497v5.813c.635-.008 1.105-.098 1.413-.27.317-.18.661-.649 1.03-1.405.119-.258.247-.542.385-.851.136-.31.261-.584.372-.825.454-.954 1.011-1.607 1.671-1.96.668-.352 1.478-.528 2.428-.528.334 0 .651.004.952.013.3.009.514.013.642.013v3.867h-.874a1.64 1.64 0 00-.745.168 2.035 2.035 0 00-.939.915c-.076.172-.153.34-.231.503-.197.464-.342.795-.437.992-.094.198-.261.391-.501.58l4.588 7.451zm8.713.387c-1.191 0-2.282-.15-3.277-.451a7.02 7.02 0 01-2.57-1.393c-.72-.627-1.28-1.413-1.683-2.359-.403-.954-.605-2.075-.605-3.364 0-1.384.219-2.561.656-3.532.436-.971 1.029-1.77 1.774-2.398a6.928 6.928 0 012.531-1.327 10.566 10.566 0 015.437-.155c.796.18 1.596.472 2.402.876v3.868h-.578a8.607 8.607 0 00-.668-.568 5.462 5.462 0 00-1.953-1.018 4.595 4.595 0 00-1.376-.193c-1.147 0-2.039.404-2.673 1.211-.625.8-.937 1.878-.937 3.236 0 1.452.333 2.535 1.002 3.248.676.714 1.572 1.07 2.686 1.07.564 0 1.062-.064 1.49-.193a5.097 5.097 0 001.106-.464 5.35 5.35 0 00.77-.554c.215-.198.398-.374.553-.529h.578v3.867c-.257.112-.556.24-.899.387a7.352 7.352 0 01-1.028.36c-.437.121-.849.211-1.234.272-.377.068-.878.103-1.504.103zM187 26.4h-4.497V15.12h-4.576V26.4h-4.497V11.924H187V26.4zm10.834.387c-2.725 0-4.816-.653-6.271-1.96-1.448-1.306-2.171-3.166-2.171-5.581 0-2.363.675-4.25 2.03-5.66 1.353-1.409 3.247-2.113 5.679-2.113 2.211 0 3.873.597 4.987 1.791 1.114 1.195 1.67 2.905 1.67 5.13v1.625h-9.856c.043.67.184 1.233.424 1.689.239.447.557.803.95 1.07.386.266.836.46 1.349.58a7.947 7.947 0 001.685.167 7.12 7.12 0 001.542-.167 7.78 7.78 0 001.388-.464 8.71 8.71 0 001.015-.529 9.45 9.45 0 00.77-.502h.476v3.725c-.367.146-.706.284-1.015.412-.3.12-.715.245-1.246.374a12.986 12.986 0 01-3.406.413zm1.491-9.488c-.025-.954-.248-1.68-.669-2.178-.41-.499-1.045-.748-1.901-.748-.875 0-1.56.262-2.057.786-.488.525-.758 1.238-.81 2.14h5.437zm20.896 1.663c0 2.312-.588 4.177-1.762 5.595-1.164 1.418-2.604 2.127-4.317 2.127-.72 0-1.345-.082-1.876-.245a8.433 8.433 0 01-1.696-.76v6.032h-4.498V11.924h4.498v1.508a10.398 10.398 0 012.017-1.38c.685-.352 1.478-.528 2.377-.528 1.671 0 2.964.666 3.882 1.998.916 1.332 1.375 3.146 1.375 5.44zm-4.601.09c0-1.409-.218-2.432-.656-3.068-.428-.636-1.1-.954-2.017-.954-.403 0-.805.065-1.209.194a4.782 4.782 0 00-1.168.58v7.283c.239.103.501.176.783.22a7.15 7.15 0 001.028.064c1.097 0 1.911-.357 2.442-1.07.531-.722.797-1.805.797-3.249zm18.879-3.983h-4.474V26.4h-4.496V15.07h-4.473v-3.146h13.443v3.145z" fill="#303138"/><path d="M70.209 45.599h-2.622v-4.641H64.02v4.64h-2.621V35.13h2.621v3.832h3.568V35.13h2.622V45.6zm6.365-2.06v-1.646c-.416.042-.753.08-1.01.113a3.286 3.286 0 00-.757.175c-.215.075-.383.19-.504.345-.117.15-.176.351-.176.605 0 .37.099.625.295.766.2.136.495.204.883.204.215 0 .435-.05.659-.148.224-.098.427-.236.61-.415zm0 1.223l-.456.38c-.13.112-.308.225-.533.337-.22.108-.434.19-.644.246-.206.056-.496.085-.87.085-.696 0-1.275-.235-1.738-.704-.458-.468-.687-1.059-.687-1.771 0-.586.117-1.06.35-1.42.234-.362.57-.648 1.01-.859.444-.215.974-.365 1.591-.45.617-.084 1.28-.15 1.99-.196v-.043c0-.436-.16-.736-.483-.9-.318-.168-.797-.253-1.437-.253-.29 0-.628.054-1.016.162a7.59 7.59 0 00-1.136.4h-.21v-1.905c.243-.07.635-.152 1.177-.246a9.157 9.157 0 011.64-.148c1.356 0 2.342.228 2.959.683.621.45.932 1.139.932 2.067v5.372h-2.44v-.837zm12.295 2.791h-2.18v-1.982h-4.556v1.982h-2.18v-3.726h.567c.355-.74.638-1.646.849-2.714.214-1.069.322-2.206.322-3.41h6.4v6.124h.778v3.726zm-3.218-3.726v-4.388H83.92c-.08.877-.215 1.69-.407 2.44a10.243 10.243 0 01-.68 1.948h2.818zm8.503 1.983c-1.486 0-2.626-.357-3.42-1.07-.79-.712-1.185-1.727-1.185-3.044 0-1.289.369-2.318 1.107-3.086.739-.77 1.771-1.154 3.099-1.154 1.205 0 2.112.326 2.72.978.607.651.911 1.584.911 2.798v.886H92.01c.024.366.1.673.232.921.13.244.303.438.518.584.21.145.456.25.736.316a4.328 4.328 0 001.76 0 4.22 4.22 0 00.757-.253c.2-.089.385-.185.553-.288a5.2 5.2 0 00.42-.274h.26v2.032c-.2.08-.385.154-.553.225a5.43 5.43 0 01-.68.204 7.077 7.077 0 01-1.857.225zm.813-5.175c-.014-.52-.135-.917-.364-1.189-.224-.272-.57-.407-1.038-.407-.476 0-.85.142-1.121.428-.267.286-.414.675-.442 1.168h2.965zm15.415 4.964h-2.762l-1.739-3.101h-.595v3.1h-2.439v-3.1h-.597l-1.773 3.1h-2.7l2.321-3.986a.931.931 0 01-.273-.31 4.76 4.76 0 01-.239-.548c-.116-.319-.25-.55-.399-.696a.781.781 0 00-.567-.218h-.526v-2.138c.084 0 .22-.002.407-.006a23.3 23.3 0 01.574-.008c.528 0 .969.099 1.325.296.355.192.643.539.862 1.04.047.108.105.254.175.436l.204.486c.177.393.334.653.469.78.14.127.386.19.737.19v-3.213h2.439v3.213c.35-.005.593-.066.729-.183.135-.122.294-.384.477-.787.046-.113.107-.263.181-.45.08-.193.145-.35.197-.471.22-.497.51-.844.869-1.041.36-.197.799-.296 1.318-.296.177 0 .367.003.567.008.207.004.344.007.414.007v2.109h-.525a.836.836 0 00-.547.19c-.15.126-.286.34-.406.64a5.432 5.432 0 01-.232.541c-.075.16-.173.288-.295.387l2.349 4.029zm8.426 0h-2.454v-3.382h-2.538v3.382h-2.453v-7.896h2.453v2.735h2.538v-2.736h2.454V45.6zm8.88-2.651c0 .403-.079.776-.238 1.118a2.385 2.385 0 01-.624.83c-.317.257-.647.44-.987.548-.337.103-.793.155-1.367.155h-3.786v-7.896h2.446v2.664h1.346c.567 0 1.021.04 1.366.12.352.08.684.237.996.471.276.206.487.485.632.837.144.351.216.736.216 1.153zm-2.697.682a.888.888 0 00.16-.317c.029-.112.042-.227.042-.344 0-.338-.099-.588-.301-.752-.201-.164-.492-.246-.87-.246h-.89v2.032h.89c.253 0 .459-.036.618-.106a.908.908 0 00.351-.267zm5.95 1.969h-2.454v-7.896h2.454v7.896zm5.917.21c-1.487 0-2.627-.356-3.421-1.068-.79-.713-1.185-1.728-1.185-3.045 0-1.289.37-2.318 1.108-3.086.738-.77 1.77-1.154 3.098-1.154 1.205 0 2.112.326 2.72.978.607.651.912 1.584.912 2.798v.886h-5.377c.023.366.101.673.231.921.131.244.304.438.518.584.211.145.456.25.737.316a4.32 4.32 0 001.759 0c.276-.065.529-.15.757-.253.201-.089.386-.185.554-.288a5.2 5.2 0 00.42-.274h.26v2.032c-.201.08-.386.154-.553.225a5.307 5.307 0 01-.681.204 7.083 7.083 0 01-1.857.225zm.813-5.174c-.015-.52-.136-.917-.364-1.189-.225-.272-.571-.407-1.039-.407-.476 0-.851.142-1.12.428-.267.286-.415.675-.442 1.168h2.965zm15.441 1.02c0 1.297-.353 2.322-1.064 3.072-.706.745-1.706 1.118-3 1.118-1.285 0-2.285-.373-3-1.118-.712-.75-1.066-1.774-1.066-3.073 0-1.312.354-2.339 1.066-3.08.715-.745 1.715-1.118 3-1.118 1.289 0 2.289.375 3 1.125.711.746 1.064 1.77 1.064 3.073zm-2.515.013c0-.469-.039-.858-.12-1.167-.074-.314-.18-.565-.315-.752a1.161 1.161 0 00-.491-.408 1.54 1.54 0 00-.623-.12c-.22 0-.419.035-.597.106a1.13 1.13 0 00-.49.386c-.139.183-.253.434-.336.753-.085.319-.127.72-.127 1.202 0 .483.039.874.12 1.174.079.296.182.532.307.71.132.183.296.317.492.401.197.085.413.127.652.127.196 0 .395-.042.596-.127.204-.084.368-.21.49-.38.145-.201.255-.442.33-.724.075-.285.112-.68.112-1.18zm10.563-2.714c.299.305.536.682.708 1.132.173.445.26 1 .26 1.666 0 1.233-.367 2.225-1.101 2.975-.729.745-1.715 1.118-2.958 1.118-1.365 0-2.378-.443-3.043-1.33-.663-.885-.994-2.212-.994-3.979 0-.337.016-.68.049-1.026a9.42 9.42 0 01.223-1.273c.099-.413.24-.823.421-1.23a3.49 3.49 0 01.666-1.013c.29-.3.685-.558 1.185-.773.5-.22 1.201-.375 2.103-.465a30.24 30.24 0 011.513-.105 70.291 70.291 0 011.395-.056v1.849c-.294.014-.564.028-.812.042a23.925 23.925 0 00-1.613.12 8.579 8.579 0 00-.813.105 3.08 3.08 0 00-.757.26 1.68 1.68 0 00-.568.464c-.112.146-.205.34-.279.584a4.718 4.718 0 00-.155.886 4.95 4.95 0 011.094-.598c.383-.15.796-.225 1.24-.225.44 0 .851.073 1.234.218.383.146.718.364 1.002.654zm-2.054 4.683c.15-.183.269-.406.358-.668.094-.267.14-.645.14-1.132 0-.567-.145-1.022-.434-1.364-.29-.347-.674-.52-1.15-.52a2.929 2.929 0 00-1.459.394c0 .046-.001.114-.006.203v.232c0 .68.021 1.196.063 1.547.041.352.135.677.279.977.122.254.287.446.493.577.204.131.443.197.714.197.154 0 .325-.035.512-.106.191-.07.355-.182.49-.337zm13.312 1.962h-2.411v-4.957l-1.598 3.29h-1.039l-1.598-3.29v4.957h-2.341v-7.896h2.671l1.822 3.656 1.824-3.657h2.67V45.6zm5.91.21c-1.488 0-2.628-.356-3.422-1.068-.789-.713-1.185-1.728-1.185-3.045 0-1.289.37-2.318 1.108-3.086.739-.77 1.771-1.154 3.099-1.154 1.205 0 2.111.326 2.719.978.608.651.912 1.584.912 2.798v.886h-5.376c.022.366.1.673.23.921.131.244.305.438.52.584.209.145.455.25.735.316.28.061.587.092.918.092a3.876 3.876 0 001.598-.345 4.55 4.55 0 00.554-.288c.174-.103.314-.195.422-.274h.259v2.032c-.201.08-.386.154-.554.225a5.35 5.35 0 01-.681.204 7.083 7.083 0 01-1.856.225zm.812-5.174c-.013-.52-.136-.917-.364-1.189-.225-.272-.57-.407-1.038-.407-.476 0-.85.142-1.121.428-.267.286-.414.675-.442 1.168h2.965zm11.124 4.964h-2.453v-3.382h-2.538v3.382h-2.454v-7.896h2.454v2.735h2.538v-2.736h2.453V45.6zm9.324 0h-2.454v-3.382h-2.537v3.382h-2.454v-7.896h2.454v2.735h2.537v-2.736h2.454V45.6zm9.357 0h-2.411v-4.796L203.52 45.6h-2.055v-7.896h2.413v4.288l2.762-4.288h2.305V45.6zm9.66 0h-2.825l-1.864-3.13h-.632v3.13h-2.454v-7.896h2.454v3.17c.346-.004.603-.053.772-.147.173-.098.36-.354.561-.766.065-.141.135-.296.21-.465l.202-.45c.248-.52.552-.876.912-1.068.365-.192.807-.288 1.325-.288.182 0 .355.002.518.007.165.004.281.007.352.007v2.109h-.476c-.15 0-.286.03-.407.091a1.118 1.118 0 00-.512.5 11.73 11.73 0 01-.128.274c-.105.253-.186.433-.238.541a.927.927 0 01-.272.317l2.502 4.064zm8.371 0h-2.413v-4.796l-3.014 4.796h-2.054v-7.896h2.412v4.288l2.762-4.288h2.307v7.896z" fill="#0078D7"/></g><defs><clipPath id="clip0_304_12297"><path fill="#fff" transform="translate(.5)" d="M0 0h234.24v48H0z"/></clipPath></defs></svg>