<svg width="186" height="48" fill="none" xmlns="http://www.w3.org/2000/svg"><g clip-path="url(#clip0_138_14439)"><path d="M0 9.6C0 4.298 4.31 0 9.625 0h166.03c5.316 0 9.625 4.298 9.625 9.6v28.8c0 5.302-4.309 9.6-9.625 9.6H9.625C4.309 48 0 43.702 0 38.4V9.6z" fill="#2A609F"/><path fill-rule="evenodd" clip-rule="evenodd" d="M36.23 37.78l-4.126-6.677a2.202 2.202 0 00-.524-.585 2.132 2.132 0 00-1.984-.358l-.92-1.49-.302-.487-.38-.613-.438-.71c.341-.293.663-.602.966-.928 3.842-4.12 4.606-10.584 1.493-15.62a12.594 12.594 0 00-1.484-1.95 12.15 12.15 0 00-3.097-2.41A11.894 11.894 0 0019.716 4.5a11.778 11.778 0 00-6.517 2.004C9.577 8.922 7.602 13 7.605 17.165a12.932 12.932 0 001.931 6.809c2.58 4.178 7.135 6.244 11.583 5.734a11.728 11.728 0 003.653-1.036l.478.774 1.58 2.557a2.354 2.354 0 00-.216 2.763l4.75 7.685c.42.68 1.13 1.051 1.854 1.05.407 0 .818-.117 1.186-.361l.154-.105 1.633-1.09c1.023-.68 1.32-2.096.662-3.158l-.622-1.007zM11.013 22.99C8.002 18.12 9.222 11.69 13.7 8.355a10.06 10.06 0 017.526-1.924l.085.013c2.628.408 5.092 1.853 6.784 4.196a10.684 10.684 0 01.434.64l.01.016c.388.627.703 1.279.953 1.945.585 1.563.793 3.213.66 4.824-.27 3.229-1.92 6.297-4.748 8.184a10.147 10.147 0 01-4.613 1.663 10.165 10.165 0 01-7.101-1.987 10.61 10.61 0 01-2.678-2.935zM22.928 8.767c1.035.646 2.071 1.293 3.103 1.947.156.1.196.251.097.408a210.992 210.992 0 01-3.37 5.174c-.078.116-.176.211-.33.182-.137-.026-.21-.116-.245-.284-.046-.222-.1-.452-.154-.686a16.59 16.59 0 01-.293-1.461c-.018-.12-.086-.17-.192-.162-4.053.228-8.742 2.534-9.065 7.247a.408.408 0 01-.124.273.34.34 0 01-.347.083c-.177-.058-.224-.228-.265-.386-1.567-6.075 3.11-11.208 8.89-11.532.13-.007.148-.07.126-.178a77.3 77.3 0 00-.157-.724c-.061-.282-.123-.564-.18-.845-.03-.142-.012-.287.113-.368.112-.072.23-.042.348.032.68.428 1.363.854 2.045 1.28zm-6.395 17.027c-1.057-.66-2.114-1.32-3.167-1.988-.155-.098-.196-.25-.097-.408a205.946 205.946 0 013.372-5.173c.078-.117.174-.212.328-.182.137.025.209.116.245.283.047.224.1.456.155.692.113.49.23.992.293 1.456.017.12.084.169.191.163 4.053-.23 8.74-2.536 9.065-7.249a.409.409 0 01.124-.273.336.336 0 01.346-.082c.178.057.225.227.266.385 1.567 6.075-3.11 11.209-8.889 11.532-.132.008-.149.071-.127.18.05.236.102.473.154.71.062.285.125.572.183.858.03.141.012.287-.113.368-.111.072-.232.041-.348-.032-.66-.415-1.32-.827-1.98-1.239l-.001-.001zm102.146-11.26h-7.608v17.24h7.608v-3.219h-4.363V24.64h3.814v-3.22h-3.814v-3.667h4.363v-3.22zm-73.92 0h-7.605v17.24h7.606v-3.219h-4.364V24.64h3.814v-3.22h-3.814v-3.667h4.364v-3.22zm4.674 0h-3.791l3.194 8.249-3.433 8.991h3.767l1.456-5.052h.095l1.454 5.052h3.815l-3.528-8.991 3.29-8.25h-3.816l-1.144 4.26h-.143l-1.216-4.26zm8.763 1.09c-.707.825-1.06 1.924-1.06 3.294v8.645c0 1.455.34 2.544 1.024 3.27.684.728 1.773 1.09 3.268 1.09 1.35 0 2.384-.416 3.098-1.25.716-.834 1.081-1.937 1.098-3.307l-3.205-.447c-.015.595-.122 1.041-.32 1.338-.198.298-.455.446-.771.446-.412 0-.674-.107-.784-.322a1.433 1.433 0 01-.166-.668v-8.795c0-.115.015-.251.047-.41.031-.156.087-.3.165-.432a1.06 1.06 0 01.319-.335c.133-.09.31-.136.53-.136.33 0 .594.17.79.508.196.339.303.765.319 1.275l3.124-.569c.015-.083.023-.16.023-.235v-.236c0-1.172-.346-2.126-1.037-2.86-.692-.736-1.76-1.103-3.207-1.103-1.463 0-2.548.412-3.255 1.238zm12.507-1.09H67.46v17.24h3.243V24.64h2.074v7.134h3.243v-17.24h-3.243v6.836h-2.075v-6.837zm13.807 0h-3.96l-3.148 17.24h3.433l.5-3.367h2.433l.5 3.367h3.412l-3.171-17.24zm-1.885 4.458l.358 3.494.31 2.748H81.79l.335-2.748.357-3.494h.143zm9.251-4.459H89.04v17.241h3.243v-8.297h.12l1.139 3.27 1.948 5.027h2.754v-17.24h-3.171v8.15h-.119l-1.12-3.146-1.957-5.005zm9.837 1.09c-.739.826-1.11 1.925-1.11 3.295v8.645c0 1.455.343 2.544 1.026 3.27.683.728 1.772 1.09 3.267 1.09 1.336 0 2.368-.367 3.099-1.102.732-.735 1.098-1.812 1.098-3.232v-5.426h-4.34v2.948h1.098v2.65a.858.858 0 01-.303.682c-.204.173-.459.26-.769.26-.405 0-.66-.107-.77-.322a1.469 1.469 0 01-.162-.668v-8.795c0-.115.013-.251.046-.41.031-.156.086-.3.164-.432.077-.132.184-.244.315-.335.132-.09.306-.136.524-.136.327 0 .587.17.783.508.193.339.298.765.314 1.275l3.147-.569a5.14 5.14 0 00-.153-1.758 3.489 3.489 0 00-.764-1.413 3.654 3.654 0 00-1.36-.93c-.548-.222-1.196-.333-1.945-.333-1.396 0-2.466.412-3.205 1.238zm22.108-6.89h48.903c2.808 0 5.085 2.364 5.085 5.283V32.29c0 2.918-2.277 5.284-5.085 5.284h-48.903V8.732z" fill="#fff"/><path d="M131.838 19.884c.03.181.108.354.236.52.127.165.314.325.558.483.244.157.59.326 1.033.508.76.313 1.362.644 1.803.99.444.348.78.727 1.009 1.14.23.412.38.88.452 1.4.072.52.107 1.11.107 1.771 0 .793-.066 1.511-.203 2.155-.136.644-.367 1.193-.693 1.647-.324.455-.766.805-1.322 1.053-.555.248-1.255.372-2.099.372-.762 0-1.418-.117-1.966-.35-.549-.234-.996-.553-1.336-.961a3.899 3.899 0 01-.751-1.421 6.089 6.089 0 01-.239-1.727l3.268-.645c.03.629.121 1.099.271 1.413.148.314.428.47.835.47.238 0 .422-.057.556-.172.133-.116.236-.265.307-.446a2.4 2.4 0 00.141-.643c.023-.246.035-.495.035-.742 0-.346-.025-.634-.072-.866a1.532 1.532 0 00-.249-.592 1.602 1.602 0 00-.49-.433 6.953 6.953 0 00-.762-.383c-.811-.347-1.462-.707-1.957-1.077-.491-.37-.869-.766-1.131-1.187a3.621 3.621 0 01-.513-1.335 9.335 9.335 0 01-.119-1.546c0-.709.078-1.364.237-1.966.16-.601.411-1.116.753-1.545a3.524 3.524 0 011.335-1.014c.548-.247 1.212-.371 1.99-.371.827 0 1.511.136 2.05.408.543.272.967.62 1.276 1.041.311.421.529.888.657 1.4a6.06 6.06 0 01.191 1.486l-3.196.719c0-.25-.012-.48-.035-.695a1.877 1.877 0 00-.154-.58 1 1 0 00-.318-.41c-.132-.1-.318-.149-.554-.149-.219 0-.393.054-.516.16-.127.108-.226.24-.297.398a1.777 1.777 0 00-.141.531 4.752 4.752 0 00-.035.57c0 .232.015.439.048.62zm39.939 7.68c0 1.485-.357 2.584-1.073 3.294-.714.71-1.771 1.065-3.171 1.065-2.814 0-4.221-1.453-4.221-4.36V18.72c0-1.486.373-2.58 1.121-3.283.747-.702 1.78-1.052 3.1-1.052 1.445 0 2.516.35 3.208 1.052.691.702 1.036 1.797 1.036 3.283v8.844zm-4.244-10.035c-.27 0-.502.083-.692.25-.19.164-.285.435-.285.816v9.117c0 .396.095.672.285.83.19.156.422.235.692.235.269 0 .497-.079.678-.235.183-.158.276-.434.276-.83v-9.117c0-.38-.093-.652-.276-.817a.97.97 0 00-.678-.249zm-6.365 14.244h-3.244v-8.05h-.095l-.784 2.675-.64 2.008h-2.162l-.685-2.206-.763-2.551h-.118v8.124h-3.243v-17.24h3.029l1.646 4.607 1.121 3.419h.143l1.143-3.493 1.623-4.534h3.029v17.241zm-13.855-4.21c0 1.486-.357 2.585-1.074 3.295-.714.71-1.771 1.065-3.17 1.065-2.816 0-4.221-1.453-4.221-4.36V14.558h3.242v13.08c0 .396.097.672.287.83.191.156.421.233.692.233.269 0 .497-.077.679-.234.183-.156.273-.433.273-.83v-13.08h3.292v13.006z" fill="#2A609F"/></g><defs><clipPath id="clip0_138_14439"><path fill="#fff" d="M0 0h185.28v48H0z"/></clipPath></defs></svg>