<svg width="186" height="48" fill="none" xmlns="http://www.w3.org/2000/svg"><g clip-path="url(#clip0_138_14412)"><path d="M.003 8.903a1.03 1.03 0 01.234-.72.887.887 0 01.69-.275h20.859a.948.948 0 01.725.276c.17.211.258.48.245.755v5.334a1.218 1.218 0 01-.245.708.882.882 0 01-.725.348H8.14v5.358h10.523c.237-.012.47.056.666.191a.758.758 0 01.257.647v4.592a.874.874 0 01-.529.798.836.836 0 01-.37.065H8.163v5.527h14.148a.823.823 0 01.713.248.868.868 0 01.234.735v5.418a.563.563 0 01-.175.396c0 .395-.34.6-.854.6H.927a.955.955 0 01-.678-.229.879.879 0 01-.246-.695V8.903zm25.36 30.484l.34-.66c.117-.215.257-.443.409-.67l9.47-14.506-4.782-7.384-4.794-7.373a2.753 2.753 0 01-.198-.324 1.126 1.126 0 01-.094-.335c0-.12.106-.168.246-.168a.757.757 0 00.409-.096h7.32c.26.001.515.08.733.227.218.146.39.355.494.6l5.156 7.936 5.215-7.924c.1-.236.263-.438.47-.585.206-.146.448-.23.699-.242h7.436c.12.01.237.034.351.072a.212.212 0 01.102.079c.025.037.038.08.038.125a.862.862 0 01-.233.551l-9.623 14.841 9.88 15.105a3.1 3.1 0 01.315.551c.073.127.11.272.106.42 0 .215-.129.323-.386.323h-7.53a1.08 1.08 0 01-.655-.216 1.459 1.459 0 01-.468-.587l-5.717-8.691-5.659 8.691a1.455 1.455 0 01-.467.587 1.08 1.08 0 01-.655.216h-7.553a.473.473 0 01-.293-.096.33.33 0 01-.129-.276.353.353 0 01.047-.191zM59.096 8.855a.998.998 0 01.233-.671.874.874 0 01.69-.276h6.887c.212.003.42.056.608.156.228.114.419.293.55.515 1.777 2.95 3.542 5.854 5.296 8.715l5.332 8.715V8.723a.986.986 0 01.386-.587.864.864 0 01.584-.216h5.998a1.15 1.15 0 01.737.252.856.856 0 01.292.695v30.245a.745.745 0 01-.257.636 1.077 1.077 0 01-.69.203h-6.758a.692.692 0 01-.491-.191 3.331 3.331 0 01-.433-.516l-5.542-9.386a3917.931 3917.931 0 00-5.553-9.387v18.533c.018.255-.057.507-.211.708a1.006 1.006 0 01-.76.24h-5.975a.813.813 0 01-.701-.276.948.948 0 01-.222-.648V8.855zm97.36 15.104c.003 1.47-.19 2.934-.573 4.35a15.405 15.405 0 01-1.626 3.801 15.892 15.892 0 01-5.752 5.694 16.439 16.439 0 01-8.114 2.11H130.02a1.388 1.388 0 01-.678-.168c-.199-.12-.293-.36-.293-.743V8.902a1.043 1.043 0 01.305-.767.883.883 0 01.725-.288h10.371a16.24 16.24 0 014.267.563c1.336.362 2.621.898 3.824 1.595a16.658 16.658 0 013.25 2.481c.974.96 1.819 2.048 2.514 3.237a16.23 16.23 0 011.624 3.86c.375 1.426.553 2.899.527 4.376zm-19.257-8.332V32.23h2.712l.924-.072a8.4 8.4 0 002.947-.791 8.316 8.316 0 002.338-1.726 7.854 7.854 0 001.602-2.518 8.424 8.424 0 00.585-3.153 8.279 8.279 0 00-.666-3.332 8.232 8.232 0 00-1.809-2.634 7.98 7.98 0 00-2.659-1.718 8.4 8.4 0 00-3.25-.623l-2.724-.036zm24.752-6.724c-.016-.262.068-.52.233-.72a.904.904 0 01.317-.214.869.869 0 01.374-.06h20.87a.928.928 0 01.714.276c.179.206.271.478.257.754v5.335a1.12 1.12 0 01-.257.707.89.89 0 01-.331.253.855.855 0 01-.406.07h-13.633v5.36h10.523c.236-.012.47.055.666.191a.739.739 0 01.208.29.774.774 0 01.05.357v4.616a.829.829 0 01-.234.575.809.809 0 01-.667.288h-10.522v5.526h14.147a.821.821 0 01.713.249.873.873 0 01.234.734v5.418a.573.573 0 01-.175.396c0 .396-.34.6-.866.6h-21.291a.936.936 0 01-.679-.228.884.884 0 01-.245-.696V8.903z" fill="#16192E"/><path fill-rule="evenodd" clip-rule="evenodd" d="M118.808 10.858l-11.365 16.237-4.487-3.143c-.738-.517-1.632-.084-1.469.712l2.395 11.64c.116.566.732.997 1.303.913l11.754-1.73c.803-.118.904-1.107.165-1.624l-4.487-3.143 10.307-14.725c2.891 5.524 2.675 12.43-1.146 17.89-5.457 7.796-16.198 9.69-23.991 4.23-7.794-5.459-9.689-16.204-4.232-24 5.456-7.795 16.197-9.69 23.991-4.23.44.308.86.633 1.262.973z" fill="#16192E"/><path fill-rule="evenodd" clip-rule="evenodd" d="M112.541 11.679c-.117-.566-.733-.998-1.304-.914l-11.754 1.73c-.803.119-.904 1.108-.165 1.625l4.487 3.143-10.868 15.528a18.24 18.24 0 004.323 4.838l11.719-16.742 4.487 3.143c.739.518 1.633.085 1.469-.71l-2.394-11.641z" fill="#5493E3"/></g><defs><clipPath id="clip0_138_14412"><path fill="#fff" d="M0 0h185.217v48H0z"/></clipPath></defs></svg>