<svg width="202" height="48" fill="none" xmlns="http://www.w3.org/2000/svg"><path fill-rule="evenodd" clip-rule="evenodd" d="M145.811 16.101c-.308.197-.445.848-1.769 8.369a602.652 602.652 0 01-.908 5.067 45.31 45.31 0 00-.411 2.808l-.165 1.508 1.506-.079c1.762-.092 1.622.176 2.435-4.627.277-1.643.813-4.684 1.189-6.756.973-5.362 1.033-5.988.606-6.26-.442-.282-2.057-.301-2.483-.03zm6.436.019c-.426.271-1.106 3.374-2.031 9.26a300.09 300.09 0 01-.764 4.257c-.352 1.914-.58 3.639-.505 3.834.091.238.589.354 1.524.354 1.39 0 1.391 0 1.69-1.004.165-.553.301-1.225.302-1.495.001-.75.514-2.438.74-2.438.111 0 .812 1.11 1.559 2.468l1.356 2.47h1.663c1.563 0 1.663-.037 1.663-.598 0-.33-.108-.71-.239-.845-.331-.342-3.123-5.334-3.123-5.584 0-.11 1.076-1.17 2.392-2.353 1.315-1.184 2.43-2.306 2.476-2.494.062-.257-.355-.341-1.689-.341h-1.772l-1.666 1.69c-.916.928-1.797 1.689-1.956 1.689-.204 0-.226-.367-.074-1.235.119-.68.33-1.936.47-2.794.139-.857.361-2.141.496-2.853.321-1.71.045-2.216-1.208-2.21-.529.002-1.115.102-1.304.222zm-100.05.726c-.594.063-1.216.28-1.383.482-.166.202-.577 1.979-.913 3.95-1.08 6.347-1.693 9.795-1.922 10.825-.123.554-.165 1.16-.094 1.346.2.523 3.285.752 5.725.425 2.635-.354 4.396-1.248 5.409-2.747.625-.926.722-1.322.722-2.937 0-1.683-.07-1.94-.711-2.613-.391-.41-.711-.835-.711-.943 0-.109.353-.497.785-.862 1.079-.912 1.543-1.917 1.543-3.342 0-1.456-.637-2.468-1.946-3.093-.95-.452-4.42-.715-6.504-.491zm12.34.656c-.587.631-.696 1.758-.218 2.238.492.495 2.386.387 2.882-.164.5-.553.566-1.88.118-2.331-.53-.533-2.193-.38-2.783.257zm39.863.033c-.616.66-.737 1.717-.251 2.205.492.495 2.385.387 2.882-.164.499-.553.566-1.88.118-2.331-.542-.544-2.126-.377-2.749.29zm-32.533 1.011c-.7.227-.85.446-1.14 1.663-.323 1.35-.368 1.402-1.2 1.402-.88 0-.9.03-.97 1.483-.014.266.235.506.624.602.593.146.642.267.585 1.441-.034.705-.2 1.866-.37 2.581-.168.715-.315 2.157-.325 3.205-.018 1.776.03 1.948.707 2.534.6.52 1.004.628 2.343.628 2.012 0 2.563-.353 2.447-1.57-.088-.933-.035-.905-1.853-1.003-.419-.023-.462-.206-.358-1.52.159-1.998.63-4.775.96-5.644.245-.65.362-.697 1.487-.616 1.121.08 1.25.029 1.57-.643.545-1.134.255-1.478-1.243-1.478h-1.309l.172-1.69.173-1.688-.747.026c-.41.015-1.11.144-1.553.287zm53.756.012c-.593.191-.889.474-.993.948-.379 1.741-.524 1.974-1.284 2.063-.873.103-1.136.42-1.142 1.374-.003.555.145.712.795.843.778.156.795.19.636 1.266a41.72 41.72 0 01-.459 2.406c-.162.715-.303 2.216-.311 3.335-.017 1.918.025 2.072.708 2.664.603.523 1.003.628 2.373.628 1.941 0 2.532-.406 2.411-1.657-.068-.703-.182-.815-.854-.841-1.554-.06-1.493.017-1.347-1.725.2-2.393.666-5.101.976-5.684.216-.407.506-.498 1.424-.45 1.323.068 1.595-.124 1.709-1.208.082-.768.063-.78-1.34-.91-.813-.073-1.401-.249-1.373-.41.028-.153.13-.884.228-1.623l.178-1.345-.745.027c-.41.015-1.126.15-1.59.299zm-69.46.73c.896.343 1.112.672 1.117 1.703.008 1.555-1.559 2.693-3.71 2.698l-.742.001.174-1.494c.095-.822.292-1.875.438-2.34.229-.732.379-.844 1.132-.844.477 0 1.193.124 1.591.276zm25.889 2.183c-1.86.409-3.352 1.388-4.415 2.9-1.141 1.62-1.43 2.54-1.453 4.624-.024 2.224.727 3.724 2.235 4.462 1.257.616 4.483.793 5.892.323.876-.292 1.047-.467 1.113-1.146.117-1.211-.357-1.458-2.096-1.091-1.254.264-1.585.246-2.365-.127-3-1.438-1.44-6.89 2.239-7.814.403-.102 1.157-.018 1.776.196 1.247.432 1.598.35 2.038-.477.525-.986.249-1.491-1.024-1.873-1.38-.414-1.97-.41-3.94.023zm11.098.011c-3.32.917-5.376 3.771-5.433 7.541-.025 1.666.055 2 .704 2.942 2.013 2.92 7.09 2.835 9.776-.162 1.198-1.334 1.592-2.13 1.999-4.036.654-3.052-.74-5.645-3.412-6.35-1.483-.393-2.01-.383-3.634.065zm21.809-.222a34.04 34.04 0 00-1.243.55c-.642.295-.93.32-1.151.098-.242-.243-2.75-.451-2.791-.232-.007.036-.248 1.527-.537 3.314a341.976 341.976 0 01-.761 4.547 52.534 52.534 0 00-.404 2.808l-.171 1.508 1.509-.079c1.756-.092 1.644.123 2.423-4.622.53-3.23.886-4.07 2.065-4.868 1.094-.74 1.682-.75 2.388-.04.493.495.535.74.389 2.319-.151 1.624-.353 2.806-.949 5.563-.145.672-.127 1.146.054 1.364.324.393 2.695.457 2.927.08.146-.237.328-1.132.929-4.552.126-.715.301-2.177.388-3.249.146-1.773.105-2.031-.458-2.859-.34-.5-.955-1.072-1.368-1.271-.837-.405-2.645-.617-3.239-.38zm19.78.209c-1.949.48-2.452.824-2.452 1.679 0 1.128.523 1.417 1.719.95 1.902-.742 3.065-.642 3.541.307.516 1.027.287 1.364-.93 1.364-1.214 0-2.415.334-4.05 1.125-2.872 1.39-3.519 5.522-1.064 6.797.984.511 3.183.505 4.178-.012.586-.304.87-.333 1.131-.115.192.16.905.255 1.585.212l1.234-.08.736-4.289c.404-2.358.669-4.655.589-5.103-.252-1.403-1.176-2.476-2.461-2.859-1.376-.409-2.016-.405-3.756.024zm38.024-.09c-2.38.54-4.019 1.834-5.008 3.953-1.75 3.753-.952 7.172 1.961 8.402 1.327.56 3.729.444 5.303-.257 1.374-.612 2.954-2.114 3.652-3.473.734-1.424 1.048-3.849.674-5.191-.45-1.615-1.818-2.973-3.42-3.397-1.384-.366-1.7-.37-3.162-.038zm13.976.227c-.713.365-1.097.436-1.327.245-.178-.149-.885-.234-1.572-.19l-1.249.08-.159 1.17c-.089.643-.478 2.923-.868 5.067s-.725 4.308-.746 4.808l-.037.91 1.359.078c1.279.074 1.375.036 1.632-.644.151-.398.501-2.037.779-3.643.283-1.638.735-3.313 1.029-3.815.538-.916 1.846-1.722 2.795-1.722.638 0 1.07-.717 1.07-1.772 0-.575-.145-.805-.582-.923-.872-.235-1.032-.208-2.124.35zm7.362-.158c-2.877.959-4.576 2.974-5.172 6.13-.722 3.825 1.381 6.494 4.862 6.171.811-.075 1.735-.219 2.055-.32 1.597-.505-.194 2.234-1.886 2.883-1.142.438-1.245.437-2.658-.037a67.137 67.137 0 00-1.785-.579c-.321-.088-1.363 1.39-1.365 1.934-.001.602 2.141 1.199 4.291 1.196 4.526-.006 6.719-2.058 7.624-7.135.617-3.46.751-4.276.918-5.605.095-.754.272-1.434.393-1.51.122-.075.222-.788.222-1.582v-1.445l-1.616.121c-.998.076-2-.012-2.618-.228-1.176-.411-2.02-.41-3.265.006zm-130.468.488c-.056.179-.287 1.377-.513 2.664a880.652 880.652 0 01-.648 3.638c-1.05 5.773-1.075 5.587.759 5.587 1.582 0 1.573.018 2.313-4.345.286-1.684.697-4.038.914-5.232.216-1.194.329-2.276.25-2.404-.227-.368-2.957-.287-3.075.092zm39.837.26l-.391 1.884c-.584 2.807-1.408 7.843-1.424 8.706l-.016.91h2.802l.315-1.04c.279-.918 1.37-6.908 1.812-9.94l.16-1.105h-1.569c-1.42 0-1.582.056-1.689.585zm-7.151 2.179c.74.947.736 3.311-.012 4.91-1.233 2.636-4.114 3.234-5.025 1.042-.753-1.81-.262-3.866 1.319-5.523.912-.957 1.21-1.114 2.122-1.114.837 0 1.173.144 1.596.685zm79.217.116c1.146 1.55.33 5.273-1.43 6.533-.937.67-2.503.771-3.051.197-.523-.548-1.007-1.733-1.007-2.466 0-1.203 1.039-3.457 1.976-4.284 1.184-1.043 2.732-1.034 3.512.02zm21.669-.09c.497.634.537.904.377 2.533-.213 2.157-.591 2.993-1.76 3.89-1.367 1.047-2.66.807-3.4-.632-.798-1.55-.268-3.74 1.303-5.388.866-.908 1.235-1.114 1.993-1.114.706 0 1.065.172 1.487.71zM55.418 26.55c.467.287.946.782 1.063 1.101.59 1.604-1.162 3.65-3.378 3.946-.729.097-1.423.078-1.542-.041-.174-.175.315-3.788.704-5.203.143-.52 2.192-.391 3.153.197zm81.89 1.52c.251.409-.347 1.938-1.044 2.669-.805.844-2.018 1.193-2.565.738-.998-.833.067-2.917 1.672-3.27.366-.08.783-.184.925-.232.489-.164.875-.128 1.012.095zm23.964 3.06c-.636.814-.696 1.977-.129 2.546.628.63 2.24.524 2.911-.193.624-.667.766-2.209.252-2.725-.171-.172-.803-.312-1.403-.312-.874 0-1.202.138-1.631.685z" fill="#000"/><path fill-rule="evenodd" clip-rule="evenodd" d="M18.736 2.136c-1.932.286-5.178 1.397-7.234 2.477C6.356 7.317 2.19 12.72.6 18.753c-.748 2.837-.804 7.576-.12 10.135 1.219 4.568 3.01 7.767 6.067 10.84 4.204 4.224 9.377 6.352 15.443 6.352 6.076 0 11.48-2.314 15.655-6.702 2.92-3.07 4.696-6.25 5.678-10.167.705-2.809.702-7.547-.006-10.352-1.559-6.178-6.009-11.82-11.507-14.59-3.931-1.98-8.771-2.77-13.073-2.133zm6.259 2.087c8.78 1.37 15.538 8.335 16.8 17.321.91 6.473-1.924 13.656-7.071 17.925-8.036 6.664-19.779 6.034-27.097-1.455-6.7-6.857-7.537-17.76-1.965-25.607C10.04 6.242 17.55 3.062 24.995 4.223zM20.3 8.249c-3.303.555-5.214 1.296-7.601 2.947-2.548 1.761-5.003 5.33-6.002 8.726-.642 2.18-.59 6.443.106 8.635 2.358 7.428 9.377 12.087 16.927 11.237 5.769-.65 10.703-4.466 12.925-9.997.803-1.998.836-2.22.836-5.717 0-3.495-.033-3.72-.834-5.717-1.86-4.643-5.679-8.181-10.326-9.567-1.395-.416-4.912-.735-6.031-.547zm0 4.656l.129 1.82.829.08.829.08.076-1.9.076-1.9h2.069l.079 1.68c.043.924.19 1.816.328 1.982.137.166.723.378 1.3.471 1.45.233 3.424 1.284 3.963 2.11.974 1.494.75 3.625-.505 4.81-.857.81-.807 1.07.32 1.682 1.34.726 1.912 1.835 1.92 3.72.016 3.258-1.745 5.037-5.387 5.44l-1.759.196-.13 1.949-.129 1.949-.797.078c-1.086.106-1.36-.327-1.452-2.297-.078-1.675-.08-1.68-.854-1.68h-.776l-.13 1.95-.129 1.949-.798.078c-1.085.106-1.359-.327-1.451-2.297l-.078-1.68-2.263-.074-2.264-.075v-1.16c0-1.155.003-1.159.923-1.159 1.982 0 1.922.21 1.922-6.75 0-4.689-.079-6.263-.323-6.417-.177-.112-.847-.265-1.487-.34-1.163-.137-1.164-.138-1.164-1.176v-1.04l2.393-.075 2.392-.074v-1.766c0-.972.083-1.85.185-1.952.101-.102.596-.15 1.099-.109l.914.078.13 1.82zm.172 4.721c-.095.095-.172 1.204-.172 2.464 0 2.238.015 2.295.658 2.457.362.091 1.313.111 2.113.045 1.228-.102 1.567-.249 2.186-.945 1.39-1.563.69-3.618-1.373-4.032-1.064-.214-3.195-.207-3.412.011zm-.062 7.709c-.072.19-.098 1.389-.056 2.664l.075 2.318 2.378-.003c2.798-.004 3.593-.412 4.207-2.159.354-1.005.344-1.122-.154-1.795-.293-.397-.812-.865-1.154-1.042-.878-.453-5.122-.44-5.296.017z" fill="#FFB629"/></svg>