<svg width="25" height="24" fill="none" xmlns="http://www.w3.org/2000/svg"><g clip-path="url(#clip0_153_7181)"><path d="M12.5 24c6.627 0 12-5.373 12-12s-5.373-12-12-12S.5 5.373.5 12s5.373 12 12 12z" fill="url(#paint0_linear_153_7181)"/><path fill-rule="evenodd" clip-rule="evenodd" d="M5.932 11.874c3.498-1.524 5.83-2.529 6.998-3.014 3.333-1.387 4.025-1.627 4.476-1.635.1-.002.322.023.465.14a.506.506 0 01.171.324c.016.094.036.306.02.473-.18 1.897-.962 6.502-1.36 8.627-.168.9-.499 1.2-.82 1.23-.696.064-1.225-.46-1.9-.903-1.056-.692-1.653-1.123-2.678-1.799-1.185-.78-.417-1.21.258-1.91.177-.184 3.247-2.977 3.307-3.23.007-.032.014-.15-.056-.213-.07-.062-.174-.04-.249-.024-.106.024-1.793 1.14-5.061 3.346-.48.329-.913.489-1.302.48-.428-.009-1.252-.242-1.865-.44-.752-.245-1.349-.374-1.297-.79.027-.215.325-.436.893-.662z" fill="#fff"/></g><defs><linearGradient id="paint0_linear_153_7181" x1="12.5" y1="0" x2="12.5" y2="23.822" gradientUnits="userSpaceOnUse"><stop stop-color="#2AABEE"/><stop offset="1" stop-color="#229ED9"/></linearGradient><clipPath id="clip0_153_7181"><path fill="#fff" transform="translate(.5)" d="M0 0h24v24H0z"/></clipPath></defs></svg>