<svg width="24" height="24" fill="none" xmlns="http://www.w3.org/2000/svg"><path d="M23.683 11.224l.317-.996-1.031.033a2.409 2.409 0 01-1.34-.468h.14a1.664 1.664 0 001.481-.925l.454-.969a7.968 7.968 0 01-1.064-.062 1.662 1.662 0 01-.868-.524 1.635 1.635 0 00-1.704-.436c.024-.08.045-.16.06-.243a2.2 2.2 0 00-.45-1.62l-.783-.964-.48 1.126c-.077.16-.193.3-.34.4a2.09 2.09 0 00-.57-1.06 2.552 2.552 0 00-2.21-.744l-.937.183a3.13 3.13 0 01.38-.888l.515-.803-1.297.121-.415-.889-.8.436L12 1.2l-.74.732-.8-.415-.416.868-1.297-.148.515.806c.172.275.3.575.38.889l-.89-.175h-.029a2.636 2.636 0 00-.373-.027 2.552 2.552 0 00-1.85.77 2.089 2.089 0 00-.574 1.076 1.011 1.011 0 01-.335-.388l-.483-1.135-.788.966c-.353.46-.51 1.04-.441 1.615.014.083.035.163.059.243a1.635 1.635 0 00-1.704.436 1.676 1.676 0 01-.86.524 5.956 5.956 0 01-1.078.062l.442.984c.278.563.853.921 1.481.924h.14a2.42 2.42 0 01-1.322.466L0 10.228l.317.996c.237.779.91 1.35 1.719 1.454a1.647 1.647 0 01-.89 1.215l-.793.323.426.744c.353.548.96.874 1.61.868.168 0 .337-.018.503-.053.041.18.095.361.154.536.148.391.157.818.03 1.215l-.386.809.863.228c.192.05.394.074.592.074.142 0 .282-.015.42-.047a2.09 2.09 0 00.297-.092c.11.198.25.382.406.545.551.566 1.333.853 2.326.853h.708l-1.46.608 1.108.548c.447.22.903.418 1.369.592l-.134.386.382.174a6.014 6.014 0 001.989.412h.91a5.967 5.967 0 001.979-.415l.37-.171-.13-.386c.47-.18.933-.385 1.383-.613l1.088-.527-1.458-.593h.71c.993 0 1.779-.296 2.327-.853.16-.163.296-.347.406-.546a2.012 2.012 0 00.717.14c.198 0 .4-.027.592-.074l.866-.228-.377-.795a1.814 1.814 0 01.015-1.244c.062-.18.113-.364.154-.548.166.036.338.053.507.053a1.88 1.88 0 001.612-.889l.42-.734-.782-.32a1.647 1.647 0 01-.889-1.215 2.078 2.078 0 001.719-1.458l-.012.024z" fill="#fff"/><path d="M15.562 14.37H8.45v2.667c0 1.096.792 1.778 1.962 1.778.978 0 1.235.038 1.597.4.228-.246.551-.385.889-.38v-.04l.225-.694-.382-.418a1.353 1.353 0 01-.474.056 3.813 3.813 0 01-.711-.074h-.074c-.033 0-.033 0-.042.018l-.044.074-.08.133-.155-.035-.684-.16-.095.154v.018l.083.091-.035.119a1.236 1.236 0 01-.264.388l-.172.184-.157-.196-.115-.145a.594.594 0 01-.083-.569l-.193.08-.086-.19-.047-.133a.65.65 0 01.216-.785l.551-.296.524.104c0-.05.033-.232.048-.276h-.03l-.296.113-.296-.202a.155.155 0 010-.22l.281-.426-.714-.889 1.07.421.074-.089.148-.178.169.16a.33.33 0 01.089.16c.296.119.844.466.889 1.029l-.17.068c.021.03.048.053.08.068l.783.077.071-.02a1.26 1.26 0 01.418-.08.93.93 0 01.409.094.61.61 0 01.178-.036h.038c.418 0 .628.315.794.563l.086.125c.145.207.338.51.347.521l.086.134-.107.124a.516.516 0 01-.415.204 1.163 1.163 0 01-.142 0 .675.675 0 01-.125-.038c0 .041 0 .092-.023.133l-.122.7a1.675 1.675 0 001.343-1.71l-.003-2.679zm-7.12-.216h5.537a.891.891 0 01-.201-.889.965.965 0 01-.208-.136c-.216.16-.889.64-1.049.761l-.035.024-2.175-.385h-.044a2.529 2.529 0 01-.214 0 .21.21 0 01-.204.166h-.036a.218.218 0 01-.177-.246v-.047a.865.865 0 01-.341-.89v-.038l.032-.024s.042-.03.098-.062l-.157-.024a.11.11 0 01-.089-.124.105.105 0 01.122-.089h.003l.376.06.036-1.325.56-.593.35.735-.368 1.274.332.054a.11.11 0 01.089.124.106.106 0 01-.107.089h-.018l-.27-.045v.021c.03.054.075.095.13.122l1.657.026.424-.417a.887.887 0 01-.593-.738.864.864 0 01-.47-.433.887.887 0 01-.04-.592 1.955 1.955 0 01-.69-.463H8.243c.119.29.187.599.199.91v3.194z" fill="#FCE527"/><path d="M10.714 15.535c-.035 0-.068.027-.071.062v.003a.072.072 0 00.065.077h.003a.07.07 0 00.071-.071.068.068 0 00-.068-.071zm-.003-.003c.003 0 .003.003.003.003.003 0 .003-.003.006-.003h-.009zm4.841 4.86l-.408-.158.112-.424.125-.462a9.56 9.56 0 01-1.751.69c-.297.084-.51.122-.51.122v.3a7.23 7.23 0 01-1.102.094h-.033a7.231 7.231 0 01-1.102-.095v-.296s-.216-.041-.513-.125a9.56 9.56 0 01-1.75-.69l.12.462.116.424-.412.157L8 20.56a11.9 11.9 0 001.905.788l-.157.427a5.917 5.917 0 002.243.388h.018a5.917 5.917 0 002.243-.388l-.154-.427A11.979 11.979 0 0016 20.56l-.447-.169zm-7.057.195l.663-.223-.198-.651c.436.216.886.397 1.351.539l-.326.889a8.334 8.334 0 01-1.49-.554zm3.523 1.366l-.015-.012a7.436 7.436 0 01-1.929-.264l.4-1.084c.498.124 1.01.192 1.526.195h.033a6.608 6.608 0 001.526-.195l.4 1.084a7.413 7.413 0 01-1.941.276zm2.02-.794v-.01l-.325-.888a8.854 8.854 0 001.35-.54l-.198.652.673.226c-.48.234-.984.423-1.5.56zM12 3.479a3.089 3.089 0 011.873.571c.086-.438.248-.859.482-1.241l-.672.077-.35-.75-.678.35L12 1.837l-.655.649-.678-.35-.35.75-.673-.077c.235.382.397.803.483 1.241A3.09 3.09 0 0112 3.48zm-1.713-.332l.187.02.08-.168.234-.504.436.225.168.086.137-.125.471-.477.471.477.136.134.17-.086.432-.225.237.503.08.17.187-.021.177-.021a4.265 4.265 0 00-.183.504 3.742 3.742 0 00-3.41 0 4.265 4.265 0 00-.184-.504l.174.012zm10.501 6.447l-.08-.098c-.551-.702-1.075-1.369-2.012-1.674a1.27 1.27 0 01.119-.089c.444-.252.758-.684.86-1.185a1.758 1.758 0 00-.356-1.268l-.297-.37-.186.441c0 .027-.33.735-.993.735h-.196a1.612 1.612 0 00-.462-1.256 2.116 2.116 0 00-1.84-.61l-.453.088.281.37c.22.297.418.81.184 1.085-.112.098-.24.175-.38.228-.296.14-.722.338-.722.836 0 .323.252.66.705.948 1.336.847 2.163 1.721 2.521 2.705.555 1.5-.168 2.353-.87 2.803l-.315.201.276.252c.246.21.548.341.871.374h.27c.275 0 .548-.039.811-.119a2.088 2.088 0 01-.23.326c-.4.465-.993.72-1.607.687h-.263l-.021.264a1.248 1.248 0 00.687 1.12 2.309 2.309 0 00-.696 1.624c0 .335-.077.666-.222.969l-.296.444h.527c.871 0 1.538-.24 2-.717a2.27 2.27 0 00.521-.889 1.4 1.4 0 00.91.332c.16 0 .32-.02.474-.056l.338-.09-.148-.313a2.23 2.23 0 010-1.556c.11-.326.186-.663.228-1.007.267.136.563.204.862.201.492.006.951-.237 1.218-.649l.163-.296-.296-.124c-.993-.412-1.212-1.52-1.257-2.119.098.02.196.033.297.036l.083.056c1.078 0 1.44-1.1 1.454-1.147l.122-.388h-.406a2.893 2.893 0 01-2.178-1.105zm1.01 2.34h-.04a1.146 1.146 0 01-.614-.168s-.157 2.142 1.44 2.806v.009c-.21.32-.572.51-.954.503a1.341 1.341 0 01-1.123-.491 4.201 4.201 0 01-.243 1.481 2.516 2.516 0 000 1.778c-.134.032-.267.05-.403.05a1.168 1.168 0 01-1.085-.797s.063 2.056-2.334 2.056h-.018c.18-.343.275-.726.272-1.114.104-1.52 1.135-1.736 1.135-1.736a1.812 1.812 0 01-.791-.296.975.975 0 01-.347-.73 2.265 2.265 0 001.817-.784c.272-.311.453-.69.53-1.097a2.065 2.065 0 01-1.33.412h-.243a1.286 1.286 0 01-.702-.296c.912-.593 1.552-1.606.986-3.144-.456-1.232-1.55-2.154-2.649-2.847-.364-.225-.584-.48-.584-.7 0-.515.732-.53 1.035-.888.346-.403.13-1.055-.172-1.446a1.802 1.802 0 011.576.527c.35.332.483.833.35 1.295l.16.033c.097.017.195.026.296.03h.065c.868 0 1.26-.91 1.26-.91s.924 1.137-.436 2.026c-.234.151-.338.297-.296.445l.02.097.098.018c.987.267 1.482.948 2.095 1.722a3.191 3.191 0 002.397 1.215h.018s-.297.942-1.186.942z" fill="#222220"/><path d="M19.896 7.956c.332.19.62.447.845.755.169.26.409.468.693.593.107.035.222.053.335.053.453 0 .868-.258 1.075-.66l.172-.386-.417-.024a2 2 0 01-1.156-.66 1.19 1.19 0 00-.862-.383c-.255.003-.501.08-.714.217l-.386.27.415.225zm.694-.424l-.01.003c.253 0 .49.11.659.296.346.397.82.66 1.342.747a.928.928 0 01-.812.489.78.78 0 01-.246-.042c-.48-.163-.649-.889-1.482-1.327.163-.107.353-.163.549-.166zm-.498 4.243l-.006-.006c-.243-1.956-1.662-3.369-3.241-4.225a7.739 7.739 0 00-.412-.208 2.277 2.277 0 001.854-.435s-.915.672-2.788.062c.519.338 1.526.812 2.448 1.582 2.299 2.02.655 3.994.655 3.994a2.42 2.42 0 00.619-2.542 4.73 4.73 0 01.67 2.687c-.066 1.553-.928 2.91-1.817 3.992-.267.34-.45.74-.527 1.167a3.56 3.56 0 01.675-1.153c.963-1.129 1.778-2.299 1.894-3.985.1.296.51 1.159 1.161 1.482 0 0-.818-.492-1.185-2.412zM7.825 19a2.33 2.33 0 01-.222-.968 2.312 2.312 0 00-.7-1.624c.09-.042.173-.095.247-.16.281-.24.444-.59.441-.96l-.018-.264h-.266a1.987 1.987 0 01-1.834-1.013c.263.08.536.118.811.118h.27c.323-.032.628-.163.874-.373l.276-.252-.314-.201c-.706-.45-1.426-1.304-.871-2.803.358-.975 1.185-1.855 2.533-2.702.453-.297.702-.626.702-.949 0-.497-.418-.696-.723-.835a1.27 1.27 0 01-.38-.228c-.236-.276-.038-.8.185-1.085l.296-.37-.456-.089a1.88 1.88 0 00-.317-.024 2.1 2.1 0 00-1.544.61c-.335.33-.51.792-.477 1.26H6.16c-.667 0-.98-.705-.993-.735l-.186-.441-.297.37a1.769 1.769 0 00-.352 1.268c.1.5.412.933.856 1.185a.882.882 0 01.119.09c-.937.295-1.461.971-2.012 1.673l-.08.101a2.899 2.899 0 01-2.18 1.105H.627l.125.388c0 .048.373 1.147 1.454 1.147h.054c.1-.003.198-.015.296-.036-.044.593-.264 1.707-1.26 2.119l-.295.124.162.297c.267.412.726.655 1.218.649.3.002.593-.066.86-.202.041.344.118.682.228 1.007a2.23 2.23 0 010 1.556l-.148.314.337.089c.154.036.314.056.474.056a1.4 1.4 0 00.91-.332c.104.332.281.637.521.89.466.476 1.132.713 2 .716h.528l-.267-.485zm-.255.166c-2.397 0-2.337-2.056-2.337-2.056a1.168 1.168 0 01-1.085.797c-.136 0-.27-.018-.4-.05a2.516 2.516 0 000-1.778 4.2 4.2 0 01-.24-1.481 1.34 1.34 0 01-1.123.491H2.37a1.126 1.126 0 01-.957-.506c1.597-.664 1.44-2.806 1.44-2.806a1.147 1.147 0 01-.613.169h-.033c-.888 0-1.185-.943-1.185-.943h.018c.94-.03 1.82-.474 2.4-1.211.61-.774 1.108-1.455 2.095-1.722l.098-.018.02-.097c.027-.152-.077-.297-.296-.445-1.36-.889-.436-2.027-.436-2.027s.386.91 1.26.91h.041c.101-.003.199-.012.297-.03l.16-.032c-.137-.462 0-.963.35-1.295a1.802 1.802 0 011.575-.527c-.296.394-.515 1.046-.168 1.446.296.346 1.03.361 1.03.888 0 .22-.204.475-.568.703-1.102.693-2.196 1.614-2.65 2.847-.565 1.538.075 2.56.988 3.144-.199.166-.445.27-.703.296h-.246a2.065 2.065 0 01-1.33-.412c.077.406.258.785.527 1.096a2.28 2.28 0 001.82.786.975.975 0 01-.347.729c-.237.16-.507.26-.791.296 0 0 1.034.21 1.147 1.736-.003.388.091.77.272 1.114l-.015-.012z" fill="#222220"/><path d="M2.228 9.354h.003c.113 0 .228-.018.335-.053a1.59 1.59 0 00.693-.593c.222-.308.51-.566.842-.755l.415-.223-.386-.27a1.353 1.353 0 00-.71-.216 1.18 1.18 0 00-.863.386 2.009 2.009 0 01-1.153.66l-.417.021.169.385c.207.403.619.655 1.072.658zm.533-1.523a.877.877 0 01.655-.296c.193.003.383.062.545.166-.838.447-1.013 1.164-1.481 1.327a.746.746 0 01-.243.042.925.925 0 01-.818-.492 2.27 2.27 0 001.342-.747zm1.355 4.865a4.7 4.7 0 01.67-2.687 2.419 2.419 0 00.618 2.542s-1.647-1.973.655-3.994c.922-.77 1.926-1.244 2.445-1.582-1.873.61-2.788-.062-2.788-.062a2.27 2.27 0 001.851.435c-.13.062-.266.13-.411.208-1.58.859-3.008 2.272-3.242 4.228v-.015c-.367 1.92-1.185 2.412-1.185 2.412.649-.32 1.06-1.185 1.158-1.482.11 1.69.934 2.86 1.897 3.985.293.338.524.73.675 1.153a2.655 2.655 0 00-.533-1.161c-.889-1.082-1.748-2.439-1.81-3.98zm7.342-3.567a.481.481 0 01.394-.13v.56a.836.836 0 01-.107.394h.56a.836.836 0 01-.107-.395v-.56a.478.478 0 01.392.13v-.387h-1.132v.388zm-.234-2.688h-.006a.865.865 0 00.296.17l.071.032v-.367L10.927 6a.65.65 0 00.297.441zm1.561-.002l-.003.002A.652.652 0 0013.08 6l-.658.276v.364l.068-.033a.865.865 0 00.296-.168z" fill="#222220"/><path d="M13.964 4.954c0-.554-.933-1.052-1.961-1.052S10.04 4.4 10.04 4.954l.021.136.412 2.37-.412.24-1.075.611s-.24.125-.353.199c-.406.296-.492.693-.258.865.06-.403.412-.7.821-.688.34.01.658.181.85.463.06.07.113.148.16.225.063.1.125.19.187.275H7.65c.231.397.365.845.394 1.304v6.095c0 1.481 1.135 2.178 2.37 2.178.949 0 1.076-.045 1.598.477.521-.522.649-.477 1.597-.477 1.226 0 2.37-.703 2.37-2.178V10.96c.03-.46.163-.907.394-1.304H13.6c.062-.086.125-.175.187-.275.05-.077.103-.154.16-.225.195-.282.512-.454.853-.463a.806.806 0 01.82.688c.238-.17.152-.593-.257-.865a3.93 3.93 0 00-.35-.199l-1.066-.628-.412-.24.412-2.37.018-.125zm-3.526.273l1.446.489v2.27l-1.063-.564-.383-2.195zM8.243 10.05h2.492c.192.202.43.362.69.463a.886.886 0 00.039.592.865.865 0 00.47.433c.04.34.27.625.593.737-.177.181-.352.35-.423.418l-1.657-.026a.288.288 0 01-.13-.122v-.02l.27.044h.018a.106.106 0 00.106-.089.11.11 0 00-.089-.124l-.332-.054.368-1.274-.35-.735-.56.593-.035 1.324-.377-.059a.105.105 0 00-.124.086v.003a.11.11 0 00.089.124l.157.024a.61.61 0 00-.098.062l-.033.024v.039a.87.87 0 00.341.889v.047a.218.218 0 00.178.246h.035a.209.209 0 00.205-.166c.071.003.14.003.21 0h.045l2.172.394.035-.024c.172-.121.833-.592 1.049-.761.062.053.133.1.207.136a.891.891 0 00.202.889H8.44V10.96a2.678 2.678 0 00-.198-.91zm5.167 2.93c-.225.167-.779.57-.98.712l-1.97-.344v-.053c.032-.133.05-.27.053-.406l1.659.027.032-.033c.027-.027.551-.533.818-.827a.985.985 0 00.25.223.948.948 0 00.138.702zm-3.292-.355v.009c.045.083.11.154.19.202a2.51 2.51 0 01-.035.358c0 .027 0 .053-.021.08v.042c-.136 0-.27-.021-.4-.063a.64.64 0 01-.332-.655.82.82 0 01.356-.139.246.246 0 01.242.166zm-.204-.394l.033-1.253.296-.296.18.376-.352 1.22-.157-.047zm3.482 6.602h-.285l.222-.726c.036-.101-.148-.232-.225-.347.18.11.367.207.56.296 0 .024-.272.777-.272.777zm.761-.812L14.133 18l-.154.8c-.097 0-.201.02-.296.027l.163-.77c.047-.229-.566-.297-.868-.75a.949.949 0 01-.708.216 3.594 3.594 0 01-.667-.071.742.742 0 00-.116 0 .248.248 0 00-.228.121l-.044.074-.845-.204-.201.35a.121.121 0 00.015.154l.056.062a1.18 1.18 0 01-.213.296l-.125-.154a.448.448 0 01.021-.498l.332-.56.708.107-.11-.252c-.148-.332.077-.755.101-.998 0 .074-.077.088-.154.088h-.205a.13.13 0 00-.047 0l-.193.116-.15-.14a.108.108 0 01.02-.13l.35-.394-.415-.483.593.297.177-.214c.048.048.027.172.027.172.43.107.729.498.717.942v.086c.06.095.154.16.26.187l.804.08c.16-.05.323-.083.489-.104a.75.75 0 01.403.122.375.375 0 01.192-.065h.027c.358 0 .51.325.702.592.145.205.34.513.34.513a.3.3 0 01-.248.133.597.597 0 01-.104 0c-.385-.071-.441-.865-.66-.927h-.036a.115.115 0 00-.1.062c.1.27.04.38.15.593.08.127.181.242.297.34 0 0-.015.119-.033.205zm-4.317-.777h-.006l.036.092c-.024.08-.297.196-.297.196l-.059-.13a.438.438 0 01.142-.522l.448-.273.477.101a.424.424 0 00.083.264l-.501-.095-.296.207a.127.127 0 00-.027.16zm5.73-.192a1.672 1.672 0 01-1.348 1.707l.136-.718c0-.041.015-.091.021-.133.042.018.083.03.125.039.047.003.095.003.142 0a.516.516 0 00.415-.205l.106-.124-.088-.122s-.199-.314-.347-.521l-.083-.125c-.166-.248-.376-.563-.794-.563h-.039a.61.61 0 00-.178.036.93.93 0 00-.408-.095 1.26 1.26 0 00-.418.08l-.071.02-.782-.076a.199.199 0 01-.08-.068l.168-.069c-.047-.565-.592-.912-.889-1.028a.33.33 0 00-.088-.16l-.17-.16-.147.178-.075.089-1.096-.45.714.889-.281.426a.155.155 0 000 .22l.296.201.296-.113h.03c0 .045-.033.226-.047.276l-.516-.089-.551.296a.652.652 0 00-.21.806l.062.134.086.19.192-.08a.594.594 0 00.083.568l.116.148.154.196.172-.184c.112-.112.201-.243.263-.388l.036-.118-.083-.092v-.018l.095-.154.684.16.154.035.083-.136.045-.074c0-.015 0-.018.041-.018h.074c.235.048.471.071.708.074.16.01.32-.009.475-.056l.379.433-.225.693v.041a1.185 1.185 0 00-.89.38c-.364-.362-.621-.4-1.596-.4-1.17 0-1.962-.685-1.962-1.778v-2.667h7.111v2.667zm.193-7.002a2.583 2.583 0 00-.199.91v1.997a.595.595 0 01-.468-.54v-.091h-.089a.632.632 0 01-.403-.193.84.84 0 01-.204-.539.595.595 0 00.033.67.72.72 0 00.468.266c.053.344.329.61.672.655v.978H14.33a.687.687 0 01-.317-.889l.047-.107-.11-.041a.7.7 0 01-.438-.868l.024-.09-.083-.038a.887.887 0 01-.433-.889.546.546 0 00-.1.626c-.06.068-.137.148-.223.237a.692.692 0 01-.548-.652v-.074l-.068-.027a.685.685 0 01-.415-.344.677.677 0 01-.03-.432c.06.012.12.02.178.027.06.002.122.002.181 0 .48 0 .936-.208 1.256-.563l2.513.011zm-1.92-2.02l.486.296.121.071c-.252.068-.48.205-.66.394l-.021.018c-.042.044-.08.089-.119.136l-.023.03a1.37 1.37 0 00-.107.15l-.018.028c-.041.059-.08.124-.118.19-.27.536-.794.894-1.39.953a1.747 1.747 0 01-1.39-.954 11.374 11.374 0 00-.115-.19l-.024-.032-.095-.154-.026-.033a2.642 2.642 0 00-.116-.133l-.02-.02a1.427 1.427 0 00-.661-.395l.124-.07.489-.297.5-.297 1.337.726 1.336-.702.51.285zm-.658-.593l-1.064.56V5.72l1.443-.49-.379 2.208zM12 5.479l-1.582-.635c.133-.32.755-.592 1.582-.592.827 0 1.449.272 1.582.592L12 5.48z" fill="#222220"/></svg>