<svg width="26" height="26" fill="none" xmlns="http://www.w3.org/2000/svg"><g clip-path="url(#clip0_3_14641)"><path d="M13 25c6.627 0 12-5.373 12-12S19.627 1 13 1 1 6.373 1 13s5.373 12 12 12z" fill="#26A17B"/><path fill-rule="evenodd" clip-rule="evenodd" d="M14.441 14.037v-.001c-.082.006-.508.031-1.456.031a31.93 31.93 0 01-1.479-.031v.002c-2.916-.128-5.092-.636-5.092-1.243 0-.607 2.176-1.115 5.092-1.245v1.983c.19.013.737.045 1.491.045.906 0 1.36-.037 1.444-.045v-1.982c2.91.13 5.081.638 5.081 1.244 0 .607-2.17 1.113-5.08 1.242zm0-2.692V9.57h4.06V6.864H7.447V9.57h4.06v1.774c-3.3.152-5.781.806-5.781 1.589 0 .783 2.481 1.436 5.781 1.588v5.687h2.935V14.52c3.295-.152 5.77-.805 5.77-1.587 0-.783-2.475-1.436-5.77-1.588z" fill="#fff"/></g><rect x=".5" y=".5" width="25" height="25" rx="12.5" stroke="#EAEBEB"/><defs><clipPath id="clip0_3_14641"><rect x="1" y="1" width="24" height="24" rx="12" fill="#fff"/></clipPath></defs></svg>