<svg width="25" height="24" fill="none" xmlns="http://www.w3.org/2000/svg"><g clip-path="url(#clip0_153_7184)"><path d="M.5 11.52c0-5.43 0-8.146 1.687-9.833C3.874 0 6.59 0 12.02 0h.96c5.43 0 8.146 0 9.833 1.687C24.5 3.374 24.5 6.09 24.5 11.52v.96c0 5.43 0 8.146-1.687 9.833C21.126 24 18.411 24 12.98 24h-.96c-5.43 0-8.146 0-9.833-1.687C.5 20.626.5 17.911.5 12.48v-.96z" fill="#07F"/><path d="M13.27 17.29c-5.47 0-8.59-3.75-8.72-9.99h2.74c.09 4.58 2.11 6.52 3.71 6.92V7.3h2.58v3.95c1.58-.17 3.24-1.97 3.8-3.95h2.58c-.43 2.44-2.23 4.24-3.51 4.98 1.28.6 3.33 2.17 4.11 5.01h-2.84c-.61-1.9-2.13-3.37-4.14-3.57v3.57h-.31z" fill="#fff"/></g><defs><clipPath id="clip0_153_7184"><path fill="#fff" transform="translate(.5)" d="M0 0h24v24H0z"/></clipPath></defs></svg>